<svg width="145" height="101" fill="none" xmlns="http://www.w3.org/2000/svg"><path d="M64.245 2.238c0 3.984-.142 10.003-.424 18.042-.283 8.04-.424 14.073-.424 18.071 0 3.773.042 12.42.113 19.964-4.083-4.069-11.996-12.207-11.996-19.893 0-4.507-.155-6.372-.494-15.387-.34-9.014-.495-15.74-.495-20.204 0-1.144.354-1.724 1.046-1.724.622 0 1.554.057 2.826.156 1.271.113 2.218.155 2.84.155.664 0 1.653-.056 2.967-.155 1.328-.113 2.303-.156 2.967-.156.692 0 1.074.368 1.074 1.13zM144.68 63.02c0 .41-.34 1.003-.989 1.752-6.768 7.813-15.132 11.727-25.122 11.727-10.398 0-18.72-3.8-24.951-11.374-5.835-7.078-8.746-15.895-8.746-26.505 0-10.583 2.995-19.442 8.901-26.59C100.103 4.37 108.425.5 118.795.5c10.512 0 18.665 3.532 24.415 10.639.565.707.834 1.342.834 1.823 0 .579-.919 2.33-2.77 5.213-1.85 2.897-2.967 4.352-3.348 4.352-.438 0-1.512-.862-3.179-2.557-2.035-2.077-3.97-3.646-5.779-4.677-2.981-1.71-6.273-2.557-9.876-2.557-6.866 0-12.207 2.613-16.022 7.841-3.405 4.677-5.115 10.568-5.115 17.69 0 7.092 1.682 13.04 5.059 17.83 3.8 5.383 9.127 8.053 15.965 8.053 3.405 0 6.683-.861 9.848-2.543 2.077-1.102 4.196-2.684 6.344-4.719 1.794-1.695 2.783-2.543 2.967-2.543.212 0 1.342 1.37 3.419 4.112 2.077 2.769 3.123 4.28 3.123 4.563zm-81.51 7.418c.537.932.96 1.936 1.54 2.854.608.975-.438 1.724-1.314 1.724-.537 0-1.314-.057-2.36-.156a23.361 23.361 0 00-2.359-.155c-.565 0-1.413.056-2.571.155-1.159.113-2.007.156-2.572.156-.621 0-1.342-.551-2.204-1.654-7.474-10.087-18.763-25.135-33.937-45.155-2.36-3.052-3.73-4.762-4.098-5.087-.339 0-.508.707-.508 2.134 0 5.34.084 13.337.254 24.033.184 10.681.268 18.692.268 24.019 0 1.159-.353 1.724-1.045 1.724-.58 0-1.484-.057-2.699-.156-1.2-.113-2.105-.155-2.698-.155-.622 0-1.555.056-2.784.155a31.617 31.617 0 01-2.783.156c-.876 0-1.3-.353-1.3-1.046 0-3.8.184-9.537.537-17.223.353-7.658.537-13.422.537-17.28 0-4.182-.156-11.74-.466-22.648C.55 13.993.368 9.74.113 4.06l-.056-.678c-.029-.537.367-.79 1.243-.833 2.26-.043 4.012-.113 5.284-.212.495-.029 1.399-.184 2.755-.424 1.13-.212 2.035-.325 2.699-.325.325 0 .862.494 1.625 1.512 7.968 10.95 20.147 27.24 36.58 48.857a44.731 44.731 0 002.02 2.346c5.651 8.378 6.923 9.113 10.907 16.135zM7.078 100.5c-2.058 0-3.759-.678-5.091-2.034C.667 97.086 0 95.421 0 93.458c0-2.023.702-3.724 2.094-5.116 1.415-1.415 3.164-2.117 5.282-2.117 1.475 0 2.593.285 3.355.868v3.188c-.833-.642-1.868-.963-3.105-.963-1.25 0-2.237.392-2.963 1.166-.737.76-1.106 1.713-1.106 2.843 0 1.142.369 2.106 1.106 2.89.738.786 1.75 1.19 3.046 1.19 1.213 0 2.225-.273 3.034-.809v2.95c-.988.631-2.201.952-3.665.952zm13.861-.308h-3.474v-19.88h3.474v19.88zm10.575-16.62c-.392.38-.88.57-1.487.57-.607 0-1.095-.19-1.487-.57-.393-.38-.583-.869-.583-1.463 0-.595.19-1.095.583-1.464.393-.38.88-.57 1.487-.57.607 0 1.095.19 1.487.57.416.38.619.869.619 1.464 0 .594-.203 1.082-.619 1.463zm.25 16.619H28.29v-13.68h3.474v13.68zm10.79 0H39.08v-13.68h3.2l.262 2.248c.464-.762 1.094-1.368 1.892-1.844a4.904 4.904 0 012.557-.702c.904 0 1.713.25 2.415.75.702.499 1.25 1.2 1.618 2.093 1.297-1.891 2.939-2.843 4.937-2.843 1.416 0 2.534.523 3.355 1.57.868 1.023 1.297 2.415 1.297 4.164v8.244H57.15v-7.887c0-.928-.214-1.654-.643-2.201-.428-.535-1.023-.809-1.76-.809-.833 0-1.547.321-2.165.964-.63.63-.952 1.38-.976 2.272v7.649h-3.462v-7.887c0-.916-.214-1.642-.654-2.189-.44-.547-1.035-.809-1.785-.809-.832 0-1.558.333-2.2.987a3.19 3.19 0 00-.952 2.32v7.59zm30.812.309c-1.725 0-3.188-.678-4.413-2.034-1.214-1.344-1.809-2.998-1.809-4.984 0-2.059.667-3.772 1.987-5.14 1.333-1.415 2.867-2.117 4.604-2.117.892 0 1.725.238 2.522.702.785.463 1.38 1.034 1.785 1.724l.273-2.117h3.189v13.681h-3.189l-.273-2.272c-.429.725-1.083 1.332-1.951 1.832-.88.476-1.785.725-2.725.725zm1.06-3.093c1.07 0 1.974-.392 2.688-1.19.725-.773 1.082-1.736 1.082-2.866 0-1.119-.356-2.07-1.082-2.844-.714-.797-1.606-1.19-2.689-1.19-1.142 0-2.046.393-2.712 1.167-.69.797-1.035 1.748-1.035 2.867 0 1.142.345 2.105 1.035 2.89.678.774 1.582 1.166 2.712 1.166z" fill="#fff"/></svg>