<svg width="145" height="107" fill="none" xmlns="http://www.w3.org/2000/svg"><path d="M64.386 2.242c0 3.993-.141 10.026-.425 18.083-.283 8.057-.424 14.103-.424 18.11 0 3.781.042 12.447.113 20.009-4.092-4.078-12.022-12.235-12.022-19.938 0-4.517-.156-6.386-.496-15.42-.34-9.034-.495-15.774-.495-20.25 0-1.146.354-1.727 1.048-1.727.623 0 1.557.057 2.832.156 1.274.113 2.223.156 2.846.156.665 0 1.657-.057 2.973-.156 1.331-.113 2.309-.156 2.974-.156.694 0 1.076.369 1.076 1.133zM145 63.159c0 .41-.34 1.005-.991 1.756-6.783 7.83-15.166 11.752-25.177 11.752-10.422 0-18.762-3.809-25.007-11.398-5.848-7.095-8.765-15.93-8.765-26.565 0-10.606 3.002-19.484 8.921-26.65C100.325 4.38 108.665.5 119.059.5c10.535 0 18.705 3.54 24.468 10.663.567.708.836 1.345.836 1.826 0 .58-.921 2.337-2.776 5.225-1.855 2.903-2.973 4.362-3.356 4.362-.439 0-1.515-.864-3.186-2.563-2.039-2.082-3.979-3.654-5.791-4.687-2.988-1.714-6.287-2.563-9.898-2.563-6.882 0-12.234 2.62-16.058 7.859-3.412 4.687-5.126 10.591-5.126 17.728 0 7.108 1.685 13.07 5.07 17.87 3.809 5.395 9.147 8.072 16.001 8.072 3.412 0 6.697-.864 9.869-2.55 2.082-1.104 4.206-2.69 6.358-4.729 1.799-1.699 2.79-2.549 2.974-2.549.212 0 1.345 1.374 3.427 4.121 2.081 2.775 3.129 4.29 3.129 4.574zm-81.69 7.434c.538.934.963 1.94 1.543 2.86.61.977-.438 1.728-1.316 1.728-.538 0-1.317-.057-2.365-.156-1.048-.113-1.855-.156-2.365-.156-.566 0-1.416.057-2.577.156-1.161.113-2.01.156-2.577.156-.623 0-1.345-.553-2.21-1.657-7.49-10.11-18.804-25.191-34.012-45.256-2.365-3.059-3.738-4.772-4.106-5.098-.34 0-.51.708-.51 2.139 0 5.352.085 13.367.255 24.086.184 10.705.269 18.734.269 24.072 0 1.161-.354 1.728-1.048 1.728-.58 0-1.487-.057-2.705-.156-1.203-.113-2.11-.156-2.704-.156-.623 0-1.558.057-2.79.156a31.744 31.744 0 01-2.79.156C.426 75.195 0 74.84 0 74.147c0-3.81.184-9.558.538-17.261.354-7.675.538-13.452.538-17.318C1.076 35.377.92 27.8.61 16.869.552 14.023.369 9.761.113 4.07l-.056-.68c-.029-.538.368-.793 1.246-.836 2.265-.042 4.021-.113 5.296-.212.495-.029 1.401-.184 2.76-.425 1.134-.212 2.04-.326 2.706-.326.325 0 .863.496 1.628 1.515 7.986 10.975 20.192 27.301 36.66 48.966a44.91 44.91 0 002.025 2.35c5.664 8.398 6.939 9.134 10.932 16.172zM7.692 100.626c-2.433 0-4.317-.668-5.676-1.992C.668 97.288 0 95.594 0 93.555c0-2.063.644-3.78 1.944-5.152 1.312-1.396 2.982-2.1 4.997-2.1 2.004 0 3.59.692 4.759 2.064 1.18 1.36 1.765 2.958 1.765 4.794 0 .49-.048.954-.131 1.42H3.66c.358 2.099 1.897 3.136 4.628 3.136 1.622 0 2.922-.286 3.888-.858v2.766c-1.312.68-2.803 1.002-4.485 1.002zm-4.09-8.229H9.91c-.048-.906-.346-1.681-.883-2.302-.548-.62-1.264-.93-2.158-.93-.871 0-1.61.298-2.195.883-.584.584-.942 1.36-1.073 2.35zm19.976 7.919h-3.47V86.601h3.208l.262 2.254a5.669 5.669 0 011.968-1.86 5.223 5.223 0 012.636-.704c1.466 0 2.635.525 3.518 1.574.87 1.05 1.312 2.469 1.312 4.246v8.193h-3.47v-7.847c0-.954-.228-1.706-.68-2.242-.454-.537-1.098-.811-1.933-.811-.93 0-1.717.322-2.361.966-.656.656-.978 1.431-.978 2.35v7.596h-.012zm23.662.31c-2.434 0-4.318-.668-5.678-1.992-1.347-1.347-2.015-3.04-2.015-5.08 0-2.063.644-3.78 1.944-5.152 1.312-1.396 2.981-2.1 4.997-2.1 2.004 0 3.59.692 4.758 2.064 1.181 1.36 1.766 2.958 1.766 4.794 0 .49-.048.954-.132 1.42h-9.684c.358 2.099 1.897 3.136 4.628 3.136 1.622 0 2.922-.286 3.888-.858v2.766c-1.3.68-2.791 1.002-4.473 1.002zm-4.091-8.229h6.309c-.048-.906-.346-1.681-.883-2.302-.549-.62-1.264-.93-2.159-.93-.87 0-1.61.298-2.194.883-.584.584-.942 1.36-1.073 2.35zm19.976 7.919h-3.47V86.601h3.207l.263 2.982c.87-2.195 2.23-3.292 4.055-3.292.596 0 1.073.107 1.43.31v3.292c-.464-.167-.989-.25-1.61-.25-1.144 0-2.086.405-2.802 1.204-.715.799-1.085 1.848-1.085 3.148v6.321h.012zm16.375 6.273c-1.694 0-3.09-.322-4.222-.978v-3.244c1.18.763 2.588 1.145 4.245 1.145 1.61 0 2.815-.393 3.638-1.169.81-.775 1.216-1.86 1.216-3.232v-1.443c-.465.716-1.133 1.324-1.98 1.813a5.288 5.288 0 01-2.742.739c-1.694 0-3.16-.667-4.377-1.991-1.217-1.312-1.813-2.922-1.813-4.83 0-1.968.668-3.65 1.992-5.021 1.323-1.372 2.85-2.064 4.591-2.064.966 0 1.825.227 2.588.692.763.465 1.348 1.038 1.741 1.73l.275-2.123h3.196v12.355c0 2.302-.763 4.151-2.278 5.534-1.515 1.395-3.542 2.087-6.07 2.087zm1.276-9.445c1.109 0 2.015-.382 2.719-1.145.703-.788 1.061-1.694 1.061-2.731 0-1.05-.358-1.956-1.061-2.72-.704-.763-1.61-1.145-2.72-1.145-1.109 0-2.015.382-2.719 1.145-.691.764-1.037 1.67-1.037 2.72 0 1.037.358 1.943 1.061 2.73.716.764 1.61 1.145 2.696 1.145zm19.273 9.16h-3.614l2.826-6.548-5.593-13.143h3.84l3.59 9.124 3.53-9.124h3.638l-8.217 19.691z" fill="#fff"/></svg>