<svg width="146" height="101" fill="none" xmlns="http://www.w3.org/2000/svg"><path d="M64.516 2.245c0 4.002-.142 10.046-.426 18.12-.284 8.073-.426 14.131-.426 18.147 0 3.788.043 12.471.114 20.048-4.1-4.086-12.047-12.259-12.047-19.977 0-4.527-.156-6.4-.496-15.452-.34-9.052-.497-15.806-.497-20.29 0-1.149.355-1.73 1.05-1.73.625 0 1.561.056 2.838.155 1.277.114 2.228.157 2.852.157.667 0 1.66-.057 2.98-.157 1.333-.113 2.312-.156 2.98-.156.694 0 1.078.37 1.078 1.135zm80.776 61.04c0 .411-.341 1.007-.994 1.76-6.796 7.845-15.196 11.776-25.227 11.776-10.443 0-18.8-3.817-25.057-11.422-5.86-7.109-8.783-15.962-8.783-26.618 0-10.627 3.008-19.524 8.939-26.703C100.527 4.388 108.884.5 119.298.5c10.556 0 18.743 3.547 24.518 10.684.568.71.837 1.348.837 1.83 0 .582-.922 2.341-2.781 5.236-1.858 2.909-2.979 4.37-3.362 4.37-.44 0-1.519-.865-3.193-2.568-2.043-2.086-3.987-3.66-5.803-4.697-2.994-1.716-6.3-2.568-9.918-2.568-6.896 0-12.259 2.625-16.09 7.875-3.419 4.697-5.136 10.613-5.136 17.764 0 7.123 1.688 13.096 5.079 17.906 3.817 5.406 9.166 8.088 16.034 8.088 3.419 0 6.711-.866 9.889-2.554 2.086-1.107 4.214-2.696 6.371-4.74 1.802-1.702 2.795-2.553 2.979-2.553.213 0 1.348 1.376 3.434 4.129 2.086 2.78 3.136 4.299 3.136 4.583zm-81.855 7.449c.54.936.965 1.944 1.547 2.866.61.979-.44 1.73-1.32 1.73-.539 0-1.32-.056-2.37-.155a23.27 23.27 0 00-2.369-.156c-.567 0-1.418.056-2.582.156-1.163.113-2.015.156-2.582.156-.625 0-1.348-.553-2.214-1.66-7.505-10.13-18.842-25.242-34.08-45.347-2.37-3.065-3.747-4.782-4.115-5.108-.341 0-.511.71-.511 2.142 0 5.364.085 13.395.255 24.135.185 10.727.27 18.772.27 24.121 0 1.163-.355 1.731-1.05 1.731-.582 0-1.49-.057-2.71-.156-1.206-.113-2.114-.156-2.71-.156-.625 0-1.561.057-2.795.156-1.22.114-2.171.156-2.796.156-.88 0-1.305-.355-1.305-1.05C0 70.478.184 64.718.54 57c.354-7.69.538-13.479.538-17.352 0-4.2-.156-11.791-.468-22.745C.553 14.05.37 9.78.114 4.076l-.057-.682c-.029-.539.369-.794 1.248-.837 2.27-.042 4.03-.113 5.307-.212.497-.029 1.405-.185 2.767-.426 1.135-.213 2.043-.326 2.71-.326.326 0 .865.496 1.631 1.518 8.003 10.996 20.233 27.355 36.735 49.064a44.896 44.896 0 002.029 2.355c5.675 8.414 6.952 9.152 10.953 16.204zM3.403 100.196H0V80.652h3.403v8.34a5.15 5.15 0 011.848-1.837c.784-.468 1.661-.69 2.644-.69 1.438 0 2.596.515 3.461 1.556.866 1.04 1.299 2.42 1.299 4.151v8.035H9.25v-7.695c0-.924-.222-1.661-.666-2.2-.445-.537-1.065-.806-1.872-.806-.924 0-1.707.316-2.339.947-.643.62-.959 1.38-.959 2.304v7.439h-.012zm23.205.304c-2.386 0-4.234-.655-5.567-1.954-1.322-1.321-1.977-2.982-1.977-4.982 0-2.023.632-3.707 1.907-5.052 1.286-1.369 2.924-2.059 4.9-2.059 1.965 0 3.52.678 4.667 2.023 1.158 1.334 1.73 2.901 1.73 4.702 0 .48-.046.936-.128 1.392h-9.497c.351 2.058 1.86 3.076 4.538 3.076 1.59 0 2.866-.28 3.813-.842v2.713c-1.275.667-2.737.983-4.386.983zm-4-8.07h6.187c-.047-.89-.339-1.65-.865-2.258-.538-.608-1.24-.912-2.117-.912-.854 0-1.58.292-2.152.865-.585.574-.936 1.334-1.053 2.305zm21.589 8.07c-1.696 0-3.135-.667-4.34-2-1.192-1.322-1.777-2.948-1.777-4.9 0-2.024.655-3.708 1.953-5.053 1.31-1.392 2.819-2.082 4.526-2.082.878 0 1.696.234 2.48.69.772.456 1.357 1.017 1.754 1.696l.27-2.082h3.134v13.45h-3.135l-.269-2.234c-.42.713-1.064 1.31-1.918 1.801-.877.468-1.766.714-2.678.714zm1.03-3.041c1.052 0 1.94-.386 2.642-1.17.714-.76 1.065-1.707 1.065-2.819 0-1.099-.351-2.034-1.065-2.795-.701-.783-1.579-1.17-2.643-1.17-1.123 0-2.012.387-2.666 1.147-.679.784-1.018 1.72-1.018 2.819 0 1.122.34 2.07 1.017 2.841.667.76 1.556 1.147 2.667 1.147zm18.9 2.736h-3.404V89.494h-2.666v-2.737h2.666v-2.515l3.404-1.883v4.398h3.918l-.913 2.748h-3.005v10.69z" fill="#fff"/></svg>