<svg width="501" height="108" fill="none" xmlns="http://www.w3.org/2000/svg"><path d="M93.858 82.766c-8.39 0-14.888-2.303-19.576-6.868-4.647-4.647-6.95-10.487-6.95-17.519 0-7.115 2.22-13.037 6.703-17.766 4.524-4.812 10.282-7.238 17.232-7.238 6.909 0 12.378 2.385 16.409 7.115 4.071 4.688 6.086 10.199 6.086 16.532 0 1.686-.164 3.29-.452 4.894H79.957c1.234 7.238 6.54 10.816 15.957 10.816 5.593 0 10.076-.987 13.407-2.961v9.54c-4.524 2.345-9.665 3.455-15.463 3.455zM79.752 54.39h21.755c-.165-3.126-1.193-5.799-3.043-7.937-1.892-2.139-4.36-3.208-7.444-3.208-3.002 0-5.552 1.028-7.567 3.043-2.015 2.015-3.249 4.689-3.701 8.102zm68.883 27.307h-11.967V34.403h11.063l.904 7.773c1.686-2.632 3.948-4.77 6.786-6.416a18.014 18.014 0 019.089-2.426c5.058 0 9.088 1.81 12.132 5.428 3.002 3.62 4.523 8.513 4.523 14.641v28.253h-11.967v-27.06c0-3.29-.781-5.881-2.344-7.732-1.563-1.85-3.784-2.796-6.662-2.796-3.208 0-5.923 1.11-8.143 3.33-2.262 2.263-3.373 4.936-3.373 8.102v26.197h-.041zm81.594 1.069c-8.39 0-14.887-2.303-19.576-6.868-4.647-4.647-6.95-10.487-6.95-17.519 0-7.115 2.221-13.037 6.704-17.766 4.523-4.812 10.281-7.238 17.231-7.238 6.909 0 12.379 2.385 16.409 7.115 4.071 4.688 6.086 10.199 6.086 16.532 0 1.686-.164 3.29-.452 4.894h-33.394c1.234 7.238 6.539 10.816 15.957 10.816 5.593 0 10.076-.987 13.407-2.961v9.54c-4.483 2.345-9.624 3.455-15.422 3.455zM216.123 54.39h21.755c-.164-3.126-1.193-5.799-3.043-7.937-1.892-2.139-4.359-3.208-7.444-3.208-3.002 0-5.552 1.028-7.567 3.043-2.015 2.015-3.249 4.689-3.701 8.102zm68.883 27.307h-11.967V34.403h11.063l.904 10.282c3.003-7.568 7.691-11.351 13.983-11.351 2.056 0 3.701.37 4.935 1.07v11.35c-1.604-.576-3.413-.864-5.552-.864-3.948 0-7.197 1.398-9.664 4.154-2.468 2.755-3.743 6.374-3.743 10.857v21.796h.041zm56.465 21.632c-5.839 0-10.651-1.111-14.558-3.373V88.77c4.072 2.632 8.924 3.948 14.641 3.948 5.552 0 9.705-1.357 12.543-4.03 2.796-2.673 4.195-6.415 4.195-11.145v-4.976c-1.604 2.468-3.907 4.565-6.827 6.251-2.92 1.727-6.087 2.55-9.459 2.55-5.84 0-10.898-2.303-15.093-6.868-4.195-4.524-6.251-10.076-6.251-16.656 0-6.785 2.303-12.584 6.868-17.313 4.565-4.73 9.829-7.115 15.833-7.115 3.331 0 6.292.781 8.924 2.385 2.632 1.604 4.647 3.578 6.005 5.963l.945-7.32h11.022V77.05c0 7.937-2.632 14.311-7.855 19.082-5.223 4.811-12.214 7.197-20.933 7.197zm4.401-32.571c3.824 0 6.95-1.316 9.376-3.948 2.427-2.715 3.66-5.84 3.66-9.418 0-3.62-1.233-6.745-3.66-9.377-2.426-2.632-5.552-3.948-9.376-3.948-3.825 0-6.95 1.316-9.377 3.948-2.385 2.632-3.578 5.758-3.578 9.377 0 3.578 1.234 6.703 3.661 9.418 2.467 2.632 5.551 3.948 9.294 3.948zm66.458 31.585h-12.461l9.747-22.578-19.288-45.32h13.242l12.379 31.461 12.173-31.46h12.543l-28.335 67.897z" fill="#fff"/></svg>