<svg width="500" height="93" fill="none" xmlns="http://www.w3.org/2000/svg"><path d="M12.248 83.247H0v-48.7h11.34l.958 8.023c1.764-2.742 4.033-4.925 6.906-6.601 2.873-1.676 5.947-2.489 9.324-2.489 5.192 0 9.325 1.88 12.4 5.587 3.074 3.757 4.637 8.785 4.637 15.082v29.098h-12.35v-27.88c0-3.402-.806-6.043-2.368-7.972-1.563-1.93-3.881-2.895-6.805-2.895-3.276 0-6.048 1.168-8.316 3.453-2.319 2.336-3.478 5.13-3.478 8.329v26.965zm83.418 1.117c-8.569 0-15.222-2.336-20.01-7.059-4.738-4.773-7.107-10.766-7.107-18.027 0-7.313 2.268-13.407 6.855-18.333 4.637-4.976 10.534-7.465 17.64-7.465 7.057 0 12.652 2.438 16.785 7.364 4.133 4.824 6.2 10.512 6.2 17.063 0 1.726-.152 3.402-.454 5.027H81.452c1.26 7.465 6.704 11.172 16.33 11.172 5.747 0 10.283-1.016 13.71-3.047v9.801c-4.637 2.336-9.879 3.504-15.826 3.504zM81.25 55.114h22.279c-.152-3.25-1.21-5.942-3.125-8.176-1.916-2.235-4.486-3.301-7.611-3.301-3.075 0-5.645 1.066-7.762 3.148-2.067 2.032-3.327 4.825-3.78 8.329zm81.047 28.133h-11.895l-16.935-48.7h13.205l10.686 33.973 10.534-33.973h10.534l10.484 34.075 10.635-34.075h12.551l-17.036 48.7h-11.795L172.832 51l-10.535 32.247zm131.807 1.117c-7.309 0-13.307-2.438-17.994-7.262-4.688-4.875-7.006-10.867-7.006-17.875 0-7.211 2.469-13.254 7.409-18.23 4.99-5.028 11.189-7.517 18.649-7.517 5.191 0 9.173 1.016 11.895 3.098v11.375c-2.923-2.285-6.603-3.453-10.988-3.453-4.435 0-7.913 1.371-10.484 4.164-2.621 2.742-3.931 6.094-3.931 10.106 0 4.062 1.31 7.516 3.931 10.309 2.621 2.793 6.2 4.215 10.736 4.215 4.285 0 7.863-.965 10.686-2.895V80.91c-3.428 2.285-7.712 3.453-12.903 3.453zm55.039 0c-6.098 0-11.29-2.438-15.625-7.262-4.284-4.773-6.401-10.715-6.401-17.774 0-7.312 2.319-13.406 7.006-18.332 4.688-5.027 10.131-7.516 16.28-7.516 3.125 0 6.099.813 8.922 2.489 2.772 1.676 4.889 3.707 6.3 6.144l.958-7.515h11.29v48.7h-11.29l-.958-8.126c-1.512 2.59-3.83 4.774-6.905 6.5-3.075 1.727-6.3 2.692-9.577 2.692zm3.73-11.02c3.78 0 6.956-1.422 9.476-4.215 2.571-2.742 3.831-6.195 3.831-10.207 0-4.012-1.26-7.363-3.831-10.105-2.52-2.844-5.696-4.215-9.476-4.215-4.032 0-7.207 1.37-9.576 4.164-2.42 2.844-3.629 6.246-3.629 10.207 0 4.063 1.209 7.516 3.629 10.309 2.369 2.64 5.544 4.062 9.576 4.062zm63.154 9.903h-12.248v-48.7h11.341l.958 10.613c3.074-7.77 7.863-11.68 14.314-11.68 2.067 0 3.78.356 5.041 1.067v11.68c-1.613-.61-3.529-.914-5.646-.914-4.032 0-7.359 1.422-9.879 4.265-2.52 2.844-3.83 6.551-3.83 11.172v22.497h-.051zm63.609 1.117c-8.568 0-15.221-2.336-20.01-7.059-4.737-4.773-7.106-10.766-7.106-18.027 0-7.313 2.268-13.407 6.854-18.333 4.637-4.976 10.535-7.465 17.642-7.465 7.056 0 12.651 2.438 16.784 7.364 4.133 4.824 6.199 10.512 6.199 17.063 0 1.726-.151 3.402-.453 5.027h-34.123c1.26 7.465 6.703 11.172 16.33 11.172 5.746 0 10.283-1.016 13.71-3.047v9.801c-4.637 2.336-9.929 3.504-15.827 3.504zm-14.415-29.25h22.278c-.151-3.25-1.209-5.942-3.125-8.176-1.915-2.235-4.485-3.301-7.61-3.301-3.075 0-5.646 1.066-7.763 3.148-2.066 2.032-3.326 4.825-3.78 8.329z" fill="#fff"/></svg>