<svg width="501" height="93" fill="none" xmlns="http://www.w3.org/2000/svg"><path d="M134.628 83.092c-7.112 0-12.991-2.344-17.596-7.03-4.564-4.77-6.866-10.526-6.866-17.31 0-6.989 2.426-12.868 7.236-17.678 4.892-4.892 10.936-7.318 18.254-7.318 5.098 0 8.963.987 11.594 3.001v11.019c-2.878-2.22-6.455-3.33-10.73-3.33-4.317 0-7.73 1.356-10.238 4.028-2.549 2.632-3.823 5.92-3.823 9.827 0 3.946 1.274 7.276 3.823 9.99 2.549 2.713 6.044 4.111 10.525 4.111 4.194 0 7.689-.945 10.484-2.795v10.196c-3.412 2.179-7.606 3.289-12.663 3.289zm47.897-1.07H170.52v-68.7h12.005v68.7zm36.549-57.435c-1.357 1.316-3.042 1.974-5.139 1.974-2.097 0-3.782-.658-5.139-1.974-1.357-1.315-2.015-3.001-2.015-5.057 0-2.055.658-3.782 2.015-5.057 1.357-1.315 3.042-1.973 5.139-1.973 2.097 0 3.782.658 5.139 1.973 1.439 1.316 2.138 3.002 2.138 5.057 0 2.056-.699 3.742-2.138 5.057zm.863 57.435h-12.005v-47.28h12.005v47.28zm37.291.001h-12.005v-47.28h11.059l.905 7.77c1.603-2.631 3.782-4.728 6.537-6.372 2.754-1.645 5.714-2.426 8.839-2.426s5.92.863 8.346 2.59c2.426 1.727 4.317 4.152 5.591 7.236 4.482-6.537 10.155-9.826 17.062-9.826 4.893 0 8.757 1.809 11.594 5.427 3.002 3.535 4.482 8.346 4.482 14.39v28.49h-11.964V54.766c0-3.207-.74-5.715-2.22-7.606-1.481-1.85-3.536-2.796-6.085-2.796-2.878 0-5.345 1.11-7.483 3.33-2.179 2.18-3.289 4.77-3.371 7.853v26.436h-11.964V54.724c0-3.166-.74-5.674-2.261-7.565-1.521-1.891-3.577-2.796-6.167-2.796-2.878 0-5.386 1.151-7.606 3.413-2.22 2.26-3.289 4.933-3.289 8.017v26.23zm106.483 1.069c-5.961 0-11.018-2.344-15.253-7.03-4.193-4.646-6.249-10.361-6.249-17.227 0-7.113 2.302-13.033 6.866-17.761 4.605-4.892 9.908-7.318 15.911-7.318 3.083 0 5.961.822 8.716 2.425 2.713 1.604 4.769 3.577 6.167 5.962l.945-7.318h11.019v47.28h-11.019l-.945-7.853c-1.48 2.508-3.742 4.605-6.743 6.332-3.042 1.644-6.167 2.508-9.415 2.508zm3.659-10.69c3.7 0 6.825-1.356 9.292-4.111 2.508-2.672 3.741-6.003 3.741-9.908 0-3.865-1.233-7.154-3.741-9.826-2.467-2.755-5.55-4.112-9.292-4.112-3.947 0-7.071 1.357-9.374 4.03-2.384 2.754-3.576 6.043-3.576 9.908 0 3.947 1.192 7.277 3.576 9.99 2.344 2.673 5.468 4.03 9.374 4.03z" fill="#fff"/></svg>