<svg width="501" height="93" fill="none" xmlns="http://www.w3.org/2000/svg"><path d="M145.212 75.59H133.5V8.334h11.712v28.697c1.57-2.616 3.663-4.75 6.36-6.319 2.696-1.61 5.715-2.374 9.096-2.374 4.95 0 8.935 1.77 11.913 5.353 2.979 3.582 4.468 8.331 4.468 14.288v27.65h-11.712V49.147c0-3.18-.765-5.715-2.294-7.567-1.53-1.851-3.663-2.777-6.44-2.777-3.18 0-5.877 1.087-8.05 3.26-2.214 2.134-3.3 4.75-3.3 7.93V75.59h-.041zm79.854 1.045c-8.211 0-14.57-2.253-19.159-6.721-4.548-4.548-6.802-10.263-6.802-17.146 0-6.963 2.174-12.759 6.561-17.387 4.427-4.71 10.062-7.084 16.864-7.084 6.762 0 12.115 2.334 16.059 6.963 3.985 4.588 5.957 9.982 5.957 16.18 0 1.65-.161 3.22-.443 4.79h-32.681c1.207 7.083 6.399 10.585 15.616 10.585 5.474 0 9.861-.966 13.121-2.898v9.338c-4.387 2.294-9.418 3.38-15.093 3.38zm-13.765-27.771h21.291c-.161-3.059-1.167-5.675-2.978-7.768-1.851-2.093-4.266-3.14-7.285-3.14-2.938 0-5.434 1.007-7.406 2.979-2.012 1.972-3.22 4.588-3.622 7.929zm74.298 27.772c-5.836 0-10.787-2.294-14.932-6.882-4.106-4.548-6.118-10.143-6.118-16.864 0-6.963 2.254-12.76 6.721-17.388 4.508-4.79 9.7-7.164 15.577-7.164 3.018 0 5.836.805 8.532 2.375 2.657 1.57 4.669 3.501 6.038 5.836l.925-7.165h10.787V75.67h-10.787l-.925-7.687c-1.449 2.455-3.663 4.508-6.601 6.198-3.019 1.61-6.078 2.455-9.217 2.455zm3.542-10.464c3.622 0 6.681-1.329 9.096-4.025 2.455-2.616 3.663-5.877 3.663-9.7 0-3.784-1.208-7.003-3.663-9.62-2.415-2.696-5.434-4.024-9.096-4.024-3.864 0-6.923 1.328-9.177 3.944-2.334 2.697-3.502 5.916-3.502 9.7 0 3.864 1.168 7.124 3.502 9.78 2.294 2.616 5.353 3.945 9.177 3.945zm65.043 9.418h-11.712V38.763h-9.177v-9.419h9.177v-8.653l11.712-6.48v15.133h13.483l-3.139 9.459h-10.344V75.59z" fill="#fff"/></svg>