<svg width="25" height="26" fill="none" xmlns="http://www.w3.org/2000/svg"><g clip-path="url(#clip0_3800_1681)"><path fill-rule="evenodd" clip-rule="evenodd" d="M12.576.5C5.673.5.076 6.097.076 13s5.597 12.5 12.5 12.5c6.24 0 11.411-4.572 12.348-10.547H16.19v3.174h-3.614v-3.174H9.823c-3.133 0-4.864-1.865-4.864-4.722 0-1.367.244-2.798.244-2.798h3.076v1.576c0 1.553.964 2.038 1.953 2.038h2.344V7.58l3.614.554v2.913h8.734C23.987 5.07 18.816.5 12.576.5z" fill="#fff"/></g><defs><clipPath id="clip0_3800_1681"><path fill="#fff" transform="rotate(-90 12.75 12.75)" d="M0 0h25v25H0z"/></clipPath></defs></svg>