<svg width="25" height="26" fill="none" xmlns="http://www.w3.org/2000/svg"><g clip-path="url(#clip0_3800_1684)"><path fill-rule="evenodd" clip-rule="evenodd" d="M4.327 6.327a1.5 1.5 0 011.5-1.5 1.501 1.501 0 010 3.001 1.5 1.5 0 01-1.5-1.501zM8.333 13a4.166 4.166 0 104.165-4.167A4.167 4.167 0 008.333 13zM6.08 13a6.419 6.419 0 116.417 6.419 6.417 6.417 0 01-6.417-6.42zm-3.83-1.12v2.24c.004 1.443.01 2.164.027 2.778l.01.277c.009.275.021.547.037.877.055 1.217.258 1.88.43 2.32.226.583.498 1 .934 1.437.44.438.855.708 1.438.936.44.17 1.103.374 2.321.43.329.016.602.027.877.037l.277.01c.614.015 1.334.023 2.776.025h2.242c1.443-.002 2.164-.01 2.777-.025l.278-.01c.273-.01.545-.021.875-.037 1.219-.056 1.881-.26 2.322-.43.583-.228 1-.5 1.437-.936.436-.437.708-.854.935-1.437.172-.44.375-1.103.431-2.32l.031-.74.01-.276c.02-.645.028-1.363.031-2.916v-2.24a96.246 96.246 0 00-.028-2.778l-.008-.277c-.01-.275-.022-.547-.036-.877-.056-1.218-.26-1.88-.431-2.32-.227-.583-.499-1-.935-1.437a3.898 3.898 0 00-1.437-.936c-.44-.17-1.103-.374-2.322-.43a64.22 64.22 0 00-.875-.037l-.278-.01c-.613-.016-1.334-.023-2.777-.025h-2.242c-1.442.002-2.162.01-2.776.025l-.277.01c-.292.01-.584.022-.877.037-1.218.056-1.88.26-2.321.43a3.912 3.912 0 00-1.438.936 3.892 3.892 0 00-.934 1.437c-.172.44-.375 1.102-.43 2.32-.016.33-.028.602-.037.877l-.01.277c-.017.614-.023 1.334-.026 2.778zM0 11.53c.003-1.36.013-2.04.031-2.653l.017-.423c.008-.19.016-.388.027-.608.06-1.331.272-2.24.58-3.036.32-.82.747-1.517 1.442-2.214A6.182 6.182 0 014.31 1.155c.795-.308 1.705-.52 3.034-.58.278-.013.516-.023.75-.031l.282-.011C8.99.513 9.67.503 11.03.5h2.936c1.361.003 2.04.012 2.655.033l.281.01c.235.009.472.02.75.032 1.33.06 2.24.272 3.035.58a6.182 6.182 0 012.214 1.442 6.165 6.165 0 011.442 2.214c.308.795.52 1.705.581 3.036l.031.748.01.283c.02.613.03 1.292.032 2.653v2.936a85.527 85.527 0 01-.032 2.655l-.01.281-.031.75c-.06 1.331-.273 2.24-.581 3.036a6.167 6.167 0 01-1.442 2.214 6.155 6.155 0 01-2.215 1.44c-.795.31-1.704.521-3.034.582l-.61.027-.421.015c-.614.02-1.294.03-2.655.033H11.03a85.605 85.605 0 01-2.654-.033l-.422-.015-.61-.027c-1.33-.06-2.239-.272-3.034-.581a6.154 6.154 0 01-2.214-1.44 6.167 6.167 0 01-1.442-2.215c-.308-.797-.52-1.705-.58-3.036l-.027-.608-.017-.423A92.035 92.035 0 010 14.467v-2.936z" fill="#fff"/></g><defs><clipPath id="clip0_3800_1684"><path fill="#fff" transform="rotate(-90 12.75 12.75)" d="M0 0h25v25H0z"/></clipPath></defs></svg>