<svg width="500" height="263" fill="none" xmlns="http://www.w3.org/2000/svg"><path d="M222.021 6.006c0 13.77-.488 34.57-1.464 62.353-.977 27.784-1.465 48.633-1.465 62.452 0 13.037.146 42.919.39 68.994-14.111-14.063-41.455-42.188-41.455-68.75 0-15.576-.537-22.022-1.709-53.174-1.172-31.153-1.709-54.395-1.709-69.824 0-3.955 1.221-5.957 3.614-5.957 2.148 0 5.371.195 9.765.537 4.395.39 7.666.537 9.815.537 2.295 0 5.713-.195 10.254-.537 4.589-.39 7.959-.537 10.254-.537 2.392 0 3.71 1.27 3.71 3.906z" fill="#E53212"/><path d="M500 216.064c0 1.416-1.172 3.467-3.418 6.055-23.389 27.002-52.295 40.527-86.816 40.527-35.938 0-64.698-13.134-86.231-39.306-20.166-24.463-30.224-54.932-30.224-91.602 0-36.572 10.351-67.187 30.761-91.894C345.947 13.379 374.707 0 410.547 0c36.328 0 64.502 12.207 84.375 36.768 1.953 2.441 2.881 4.638 2.881 6.298 0 2.002-3.174 8.057-9.571 18.018-6.396 10.01-10.253 15.039-11.572 15.039-1.514 0-5.224-2.979-10.986-8.838-7.031-7.178-13.721-12.597-19.971-16.162-10.303-5.908-21.68-8.838-34.131-8.838-23.73 0-42.187 9.033-55.371 27.1-11.767 16.162-17.676 36.523-17.676 61.133 0 24.511 5.811 45.068 17.481 61.621 13.135 18.603 31.543 27.832 55.176 27.832 11.767 0 23.095-2.979 34.033-8.789 7.178-3.809 14.502-9.278 21.924-16.309 6.201-5.859 9.619-8.789 10.254-8.789.732 0 4.638 4.736 11.816 14.209 7.178 9.57 10.791 14.795 10.791 15.771zm-281.689 25.635c1.855 3.223 3.32 6.69 5.322 9.863 2.099 3.37-1.514 5.958-4.541 5.958-1.856 0-4.541-.196-8.154-.538-3.614-.39-6.397-.537-8.155-.537-1.953 0-4.883.196-8.887.537-4.003.391-6.933.538-8.886.538-2.149 0-4.639-1.905-7.617-5.713-25.831-34.864-64.844-86.866-117.286-156.055-8.154-10.547-12.89-16.455-14.16-17.578-1.172 0-1.758 2.441-1.758 7.373 0 18.457.293 46.094.88 83.057.634 36.914.927 64.599.927 83.007 0 4.004-1.22 5.957-3.613 5.957-2.002 0-5.127-.195-9.326-.537-4.15-.39-7.276-.537-9.327-.537-2.148 0-5.37.195-9.619.537-4.199.391-7.47.537-9.619.537-3.027 0-4.492-1.22-4.492-3.613 0-13.135.635-32.959 1.855-59.521 1.221-26.465 1.856-46.387 1.856-59.717 0-14.453-.537-40.576-1.611-78.272-.196-9.814-.83-24.511-1.71-44.14L.196 9.96c-.097-1.856 1.27-2.734 4.297-2.88 7.813-.147 13.867-.392 18.262-.733 1.709-.098 4.834-.635 9.521-1.465 3.907-.733 7.032-1.123 9.327-1.123 1.123 0 2.978 1.709 5.615 5.224 27.539 37.842 69.629 94.141 126.416 168.848 2.539 3.125 4.834 5.811 6.982 8.105 19.531 28.956 23.926 31.495 37.696 55.762z" fill="#fff"/></svg>