<svg width="340" height="179" fill="none" xmlns="http://www.w3.org/2000/svg"><path d="M150.975 4.084c0 9.363-.332 23.508-.996 42.4-.665 18.893-.997 33.07-.997 42.467 0 8.865.1 29.186.266 46.916-9.596-9.562-28.189-28.687-28.189-46.75 0-10.592-.366-14.974-1.163-36.158-.796-21.184-1.162-36.988-1.162-47.48 0-2.69.83-4.051 2.457-4.051 1.461 0 3.653.133 6.641.365 2.988.266 5.213.365 6.674.365 1.56 0 3.885-.133 6.973-.365 3.121-.266 5.412-.365 6.972-.365 1.627 0 2.524.863 2.524 2.656zM340 146.924c0 .963-.797 2.357-2.324 4.117-15.905 18.361-35.561 27.559-59.035 27.559-24.438 0-43.995-8.932-58.637-26.729-13.713-16.635-20.553-37.353-20.553-62.289 0-24.87 7.039-45.687 20.918-62.488C235.244 9.098 254.801 0 279.172 0c24.703 0 43.861 8.3 57.375 25.002 1.328 1.66 1.959 3.154 1.959 4.283 0 1.361-2.158 5.479-6.508 12.252-4.35 6.807-6.973 10.227-7.869 10.227-1.029 0-3.553-2.026-7.471-6.01-4.781-4.881-9.33-8.566-13.58-10.99-7.006-4.018-14.742-6.01-23.209-6.01-16.137 0-28.687 6.143-37.652 18.428-8.002 10.99-12.02 24.836-12.02 41.57 0 16.668 3.951 30.646 11.887 41.902 8.932 12.651 21.449 18.926 37.52 18.926 8.001 0 15.705-2.025 23.142-5.976 4.881-2.59 9.861-6.309 14.908-11.09 4.217-3.985 6.541-5.977 6.973-5.977.498 0 3.154 3.221 8.035 9.662 4.881 6.508 7.338 10.061 7.338 10.725zm-191.549 17.431c1.262 2.192 2.258 4.549 3.619 6.707 1.428 2.292-1.029 4.051-3.088 4.051-1.261 0-3.087-.133-5.544-.365-2.458-.266-4.35-.365-5.545-.365-1.329 0-3.321.133-6.043.365-2.723.266-4.715.365-6.043.365-1.461 0-3.155-1.295-5.18-3.884-17.565-23.708-44.094-59.069-79.754-106.118-5.545-7.172-8.766-11.19-9.629-11.953-.797 0-1.195 1.66-1.195 5.014 0 12.55.199 31.344.598 56.478.431 25.102.63 43.928.63 56.446 0 2.722-.83 4.05-2.457 4.05-1.361 0-3.486-.132-6.341-.365-2.823-.265-4.948-.365-6.342-.365-1.461 0-3.653.133-6.541.365-2.856.266-5.08.365-6.541.365-2.059 0-3.055-.83-3.055-2.457 0-8.931.432-22.412 1.262-40.474.83-17.996 1.261-31.543 1.261-40.608 0-9.828-.365-27.591-1.095-53.224C1.295 31.709.863 21.715.266 8.367L.133 6.773C.066 5.512.996 4.914 3.055 4.814c5.312-.1 9.43-.265 12.418-.498 1.162-.066 3.287-.431 6.474-.996 2.657-.498 4.782-.763 6.342-.763.764 0 2.025 1.162 3.818 3.552 18.727 25.733 47.348 64.016 85.963 114.817 1.727 2.125 3.287 3.951 4.748 5.511 13.282 19.69 16.27 21.417 25.633 37.918z" fill="#fff"/></svg>