<svg width="67" height="46" fill="none" xmlns="http://www.w3.org/2000/svg"><path d="M29.444.796c0 1.826-.065 4.585-.194 8.27-.13 3.684-.195 6.449-.195 8.282 0 1.729.02 5.692.052 9.15-1.871-1.866-5.497-5.595-5.497-9.118 0-2.066-.072-2.92-.227-7.052-.155-4.131-.227-7.213-.227-9.26 0-.524.162-.79.48-.79.284 0 .712.026 1.294.072.583.051 1.017.07 1.302.07.304 0 .758-.025 1.36-.07a16.774 16.774 0 011.36-.072c.317 0 .492.169.492.518zm36.864 27.858c0 .188-.155.46-.453.803-3.102 3.58-6.935 5.374-11.513 5.374-4.766 0-8.58-1.742-11.436-5.212-2.674-3.244-4.008-7.285-4.008-12.148 0-4.85 1.373-8.91 4.08-12.187C45.877 1.774 49.692 0 54.445 0 59.263 0 63 1.619 65.636 4.876c.258.324.381.615.381.835 0 .266-.42 1.069-1.269 2.39-.848 1.327-1.36 1.994-1.535 1.994-.2 0-.693-.395-1.457-1.172-.932-.952-1.82-1.67-2.648-2.143-1.366-.784-2.875-1.172-4.526-1.172-3.148 0-5.595 1.198-7.344 3.594-1.56 2.143-2.344 4.843-2.344 8.107 0 3.25.77 5.977 2.319 8.172 1.741 2.467 4.183 3.69 7.317 3.69 1.56 0 3.063-.394 4.513-1.165.952-.505 1.923-1.23 2.908-2.163.822-.777 1.275-1.165 1.36-1.165.097 0 .615.628 1.566 1.884.952 1.27 1.431 1.962 1.431 2.092zm-37.356 3.4c.246.427.44.887.705 1.307.279.447-.2.79-.602.79-.246 0-.602-.025-1.081-.07-.48-.053-.848-.072-1.082-.072a15.6 15.6 0 00-1.178.071c-.531.052-.92.072-1.178.072-.286 0-.616-.253-1.01-.758-3.426-4.624-8.6-11.52-15.555-20.696-1.081-1.398-1.71-2.182-1.878-2.33-.155 0-.233.323-.233.977 0 2.448.04 6.113.117 11.015.084 4.895.123 8.567.123 11.008 0 .53-.162.79-.48.79-.265 0-.68-.026-1.236-.071-.55-.052-.965-.072-1.237-.072-.285 0-.712.026-1.276.072-.556.051-.99.071-1.275.071-.402 0-.596-.162-.596-.48 0-1.741.084-4.37.246-7.893.162-3.51.246-6.151.246-7.92 0-1.916-.071-5.38-.214-10.38-.025-1.301-.11-3.25-.226-5.853L.026 1.32C.013 1.075.194.958.596.939A43.598 43.598 0 003.018.842c.226-.013.64-.084 1.262-.194.518-.098.933-.15 1.237-.15.149 0 .395.227.745.693 3.652 5.019 9.234 12.485 16.765 22.393.336.414.64.77.926 1.075 2.59 3.84 3.173 4.176 4.999 7.394zM1.624 45.852H0v-6.459h1.504l.127 1.064c.234-.363.535-.653.916-.875.38-.222.788-.33 1.236-.33.689 0 1.237.25 1.645.74.407.5.615 1.166.615 2v3.86H4.405v-3.697c0-.452-.107-.802-.314-1.058-.207-.256-.515-.384-.903-.384-.434 0-.802.155-1.102.458-.308.31-.462.68-.462 1.105v3.576zM12.687 46c-1.136 0-2.019-.31-2.654-.936-.628-.633-.942-1.428-.942-2.39 0-.97.3-1.779.909-2.432.615-.66 1.397-.99 2.34-.99.935 0 1.677.323 2.225.976.548.64.822 1.395.822 2.263 0 .23-.02.452-.06.667h-4.525c.167.99.889 1.482 2.166 1.482.762 0 1.363-.135 1.818-.404v1.3c-.615.31-1.31.464-2.1.464zm-1.912-3.88h2.955a1.733 1.733 0 00-.415-1.083c-.254-.297-.595-.438-1.01-.438-.407 0-.748.141-1.028.417-.275.27-.442.64-.502 1.105zm10.748 3.732h-1.577L17.7 39.393h1.751l1.417 4.506 1.398-4.506h1.397l1.39 4.52 1.41-4.52h1.665l-2.26 6.459h-1.564l-1.383-4.277-1.398 4.277zm17.48.148c-.97 0-1.765-.323-2.386-.963-.622-.647-.93-1.441-.93-2.37 0-.957.328-1.758.983-2.418.662-.667 1.484-.997 2.473-.997.689 0 1.217.135 1.578.41v1.51c-.388-.304-.876-.459-1.457-.459-.589 0-1.05.182-1.39.553-.348.363-.522.808-.522 1.34 0 .538.174.996.521 1.367.348.37.823.559 1.424.559.568 0 1.043-.128 1.417-.384v1.394c-.454.303-1.023.458-1.711.458zm7.299 0c-.809 0-1.497-.323-2.072-.963-.568-.633-.849-1.421-.849-2.357 0-.97.308-1.778.93-2.431.621-.667 1.343-.997 2.158-.997.415 0 .81.108 1.184.33.367.222.648.492.835.815l.127-.997h1.497v6.459h-1.497l-.127-1.078c-.2.343-.508.633-.916.862a2.59 2.59 0 01-1.27.357zm.495-1.461a1.63 1.63 0 001.257-.56c.34-.363.508-.821.508-1.353s-.167-.976-.508-1.34a1.606 1.606 0 00-1.257-.56c-.535 0-.956.183-1.27.553a2.02 2.02 0 00-.481 1.354c0 .538.16.996.48 1.367.315.35.736.539 1.27.539zm8.375 1.313h-1.624v-6.459h1.504l.127 1.408c.408-1.03 1.043-1.549 1.898-1.549.275 0 .502.047.669.141v1.55a2.131 2.131 0 00-.749-.122c-.534 0-.976.189-1.31.566-.334.377-.508.869-.508 1.481v2.984h-.007zm8.436.148c-1.136 0-2.018-.31-2.653-.936-.629-.633-.943-1.428-.943-2.39 0-.97.3-1.779.909-2.432.615-.66 1.397-.99 2.34-.99.935 0 1.677.323 2.225.976.548.64.823 1.395.823 2.263 0 .23-.02.452-.06.667h-4.526c.167.99.89 1.482 2.166 1.482.762 0 1.363-.135 1.818-.404v1.3c-.615.31-1.317.464-2.099.464zm-1.912-3.88h2.955a1.734 1.734 0 00-.414-1.083c-.254-.297-.595-.438-1.01-.438-.408 0-.748.141-1.03.417-.273.27-.44.64-.5 1.105z" fill="#fff"/></svg>