<svg width="77" height="41" fill="none" xmlns="http://www.w3.org/2000/svg"><path d="M33.813 1.415c0 2.097-.075 5.265-.224 9.496-.148 4.232-.223 7.407-.223 9.511 0 1.986.023 6.537.06 10.508-2.15-2.142-6.314-6.425-6.314-10.47 0-2.373-.081-3.354-.26-8.099-.178-4.744-.26-8.284-.26-10.633 0-.603.186-.908.55-.908.327 0 .818.03 1.487.082.67.06 1.168.082 1.495.082.35 0 .87-.03 1.562-.082.699-.06 1.212-.082 1.561-.082.365 0 .566.194.566.595zm42.335 31.991c0 .215-.178.528-.52.922-3.563 4.112-7.965 6.172-13.222 6.172-5.474 0-9.853-2-13.133-5.986-3.071-3.726-4.603-8.366-4.603-13.95 0-5.57 1.576-10.233 4.685-13.996C52.686 2.538 57.066.5 62.525.5c5.532 0 9.823 1.86 12.85 5.6.297.371.438.706.438.959 0 .305-.483 1.227-1.457 2.744-.974 1.524-1.562 2.29-1.763 2.29-.23 0-.795-.453-1.673-1.346-1.07-1.093-2.09-1.918-3.041-2.461-1.57-.9-3.302-1.346-5.198-1.346-3.614 0-6.425 1.376-8.433 4.127-1.792 2.461-2.692 5.562-2.692 9.31 0 3.733.885 6.864 2.662 9.385 2 2.833 4.804 4.239 8.403 4.239 1.792 0 3.518-.454 5.183-1.339 1.094-.58 2.209-1.413 3.34-2.484.944-.892 1.464-1.338 1.561-1.338.112 0 .706.721 1.8 2.164 1.093 1.457 1.643 2.253 1.643 2.402zm-42.9 3.904c.282.49.506 1.019.81 1.502.32.513-.23.907-.691.907-.283 0-.692-.03-1.242-.082-.55-.06-.974-.081-1.242-.081-.297 0-.744.03-1.353.081-.61.06-1.056.082-1.354.082-.327 0-.706-.29-1.16-.87-3.934-5.31-9.875-13.23-17.862-23.766-1.242-1.607-1.963-2.506-2.156-2.677-.179 0-.268.371-.268 1.122 0 2.811.044 7.02.134 12.65.096 5.621.141 9.838.141 12.641 0 .61-.186.908-.55.908-.305 0-.781-.03-1.42-.082a15.981 15.981 0 00-1.421-.082c-.327 0-.818.03-1.465.082-.64.06-1.138.082-1.465.082-.46 0-.684-.186-.684-.55 0-2.001.097-5.02.283-9.066.185-4.03.282-7.064.282-9.094 0-2.201-.082-6.18-.245-11.92C.29 7.601.193 5.362.06 2.373l-.03-.357c-.015-.283.193-.416.654-.439 1.19-.022 2.112-.06 2.781-.111.26-.015.737-.097 1.45-.223.595-.112 1.071-.171 1.42-.171.172 0 .454.26.856.795 4.194 5.763 10.604 14.338 19.253 25.715.386.476.736.885 1.063 1.235 2.974 4.41 3.644 4.796 5.74 8.492z" fill="#fff"/></svg>