<svg width="145" height="101" viewBox="0 0 145 101" fill="none" xmlns="http://www.w3.org/2000/svg">
<path d="M64.2445 2.23773C64.2445 6.22207 64.1032 12.241 63.8207 20.2803C63.5381 28.3196 63.3968 34.3526 63.3968 38.3511C63.3968 42.1235 63.4392 50.7704 63.5098 58.3152C59.4266 54.2461 51.5144 46.1078 51.5144 38.4217C51.5144 33.9146 51.359 32.0496 51.0199 23.0354C50.6808 14.0212 50.5254 7.29586 50.5254 2.83114C50.5254 1.6867 50.8786 1.10742 51.5709 1.10742C52.1926 1.10742 53.1251 1.16394 54.3967 1.26284C55.6683 1.37587 56.6149 1.41826 57.2366 1.41826C57.9007 1.41826 58.8897 1.36174 60.2037 1.26284C61.5318 1.14981 62.5067 1.10742 63.1707 1.10742C63.863 1.10742 64.2445 1.47477 64.2445 2.23773Z" fill="white"/>
<path d="M144.68 63.0202C144.68 63.43 144.34 64.0234 143.691 64.7722C136.923 72.5855 128.559 76.4992 118.569 76.4992C108.171 76.4992 99.8487 72.6985 93.6178 65.1254C87.7826 58.0469 84.8721 49.2304 84.8721 38.6197C84.8721 28.0372 87.8674 19.1784 93.7733 12.0292C100.103 4.37131 108.425 0.5 118.795 0.5C129.307 0.5 137.46 4.03222 143.21 11.139C143.775 11.8455 144.044 12.4813 144.044 12.9617C144.044 13.5409 143.125 15.2929 141.274 18.1752C139.424 21.0716 138.307 22.5269 137.926 22.5269C137.488 22.5269 136.414 21.665 134.747 19.9696C132.712 17.8926 130.777 16.3243 128.968 15.2929C125.987 13.5833 122.695 12.7356 119.092 12.7356C112.226 12.7356 106.885 15.3494 103.07 20.5771C99.665 25.2538 97.9554 31.1455 97.9554 38.2664C97.9554 45.3591 99.6367 51.3074 103.014 56.0971C106.814 61.4802 112.141 64.1505 118.979 64.1505C122.384 64.1505 125.662 63.2887 128.827 61.6073C130.904 60.5053 133.023 58.9228 135.171 56.8883C136.965 55.1928 137.954 54.3451 138.138 54.3451C138.35 54.3451 139.48 55.7156 141.557 58.4566C143.634 61.2259 144.68 62.7376 144.68 63.0202ZM63.1701 70.4379C63.707 71.3704 64.1309 72.3735 64.7102 73.2919C65.3177 74.2668 64.2722 75.0156 63.3962 75.0156C62.8593 75.0156 62.0822 74.9591 61.0367 74.8602C59.9911 74.7472 59.1858 74.7048 58.6772 74.7048C58.112 74.7048 57.2643 74.7613 56.1057 74.8602C54.9471 74.9732 54.0994 75.0156 53.5343 75.0156C52.9126 75.0156 52.192 74.4646 51.3302 73.3625C43.856 63.2745 32.567 48.2273 17.3926 28.2067C15.0331 25.1549 13.6626 23.4453 13.2953 23.1203C12.9562 23.1203 12.7866 23.8268 12.7866 25.2538C12.7866 30.5945 12.8714 38.5914 13.0409 49.287C13.2246 59.9684 13.3094 67.9794 13.3094 73.306C13.3094 74.4646 12.9562 75.0297 12.2639 75.0297C11.6846 75.0297 10.7803 74.9732 9.56524 74.8743C8.36429 74.7613 7.46004 74.7189 6.86663 74.7189C6.24496 74.7189 5.31245 74.7754 4.08324 74.8743C2.86816 74.9874 1.92153 75.0297 1.29986 75.0297C0.423866 75.0297 0 74.6765 0 73.9842C0 70.1835 0.183675 64.4472 0.536897 56.7611C0.890118 49.1033 1.07379 43.3387 1.07379 39.4815C1.07379 35.2994 0.918376 27.7404 0.607541 16.833C0.551026 13.9931 0.36735 9.74028 0.113031 4.06047L0.0565155 3.38229C0.0282577 2.84539 0.423866 2.59107 1.29986 2.54869C3.56047 2.5063 5.31245 2.43565 6.58405 2.33675C7.07856 2.30849 7.98281 2.15308 9.33918 1.91289C10.4695 1.70095 11.3737 1.58792 12.0378 1.58792C12.3628 1.58792 12.8997 2.08243 13.6626 3.09971C21.6313 14.0496 33.8104 30.3402 50.2422 51.9573C50.9769 52.8616 51.641 53.6386 52.2627 54.3027C57.9142 62.6811 59.1858 63.4158 63.1701 70.4379Z" fill="white"/>
<path d="M7.07841 100.5C5.02032 100.5 3.31912 99.8223 1.98671 98.4661C0.666203 97.0861 0 95.4206 0 93.4577C0 91.4353 0.701893 89.7341 2.09378 88.3422C3.50946 86.9265 5.25825 86.2246 7.37582 86.2246C8.85098 86.2246 9.96925 86.5101 10.7306 87.0931V90.2813C9.89788 89.6389 8.86288 89.3177 7.62565 89.3177C6.37652 89.3177 5.38911 89.7103 4.66342 90.4836C3.92584 91.2449 3.55705 92.1966 3.55705 93.3268C3.55705 94.4689 3.92584 95.4325 4.66342 96.2177C5.401 97.0028 6.41221 97.4073 7.70892 97.4073C8.92236 97.4073 9.93356 97.1337 10.7425 96.5983V99.5487C9.75512 100.179 8.54168 100.5 7.07841 100.5Z" fill="white"/>
<path d="M20.9386 100.192H17.4648V80.3125H20.9386V100.192Z" fill="white"/>
<path d="M31.5141 83.5718C31.1215 83.9525 30.6337 84.1428 30.027 84.1428C29.4203 84.1428 28.9325 83.9525 28.54 83.5718C28.1474 83.1911 27.957 82.7033 27.957 82.1085C27.957 81.5137 28.1474 81.014 28.54 80.6453C28.9325 80.2646 29.4203 80.0742 30.027 80.0742C30.6337 80.0742 31.1215 80.2646 31.5141 80.6453C31.9305 81.0259 32.1327 81.5137 32.1327 82.1085C32.1327 82.7033 31.9305 83.1911 31.5141 83.5718ZM31.7639 100.191H28.2901V86.5102H31.7639V100.191Z" fill="white"/>
<path d="M42.5539 100.191H39.0801V86.5103H42.2802L42.542 88.7587C43.0059 87.9974 43.6364 87.3906 44.4335 86.9148C45.2306 86.4389 46.0871 86.2129 46.9912 86.2129C47.8954 86.2129 48.7043 86.4627 49.4062 86.9624C50.1081 87.462 50.6554 88.1639 51.0242 89.0562C52.3209 87.1646 53.9626 86.2129 55.9612 86.2129C57.3769 86.2129 58.4951 86.7363 59.316 87.7832C60.1844 88.8063 60.6127 90.1982 60.6127 91.947V100.191H57.1508V92.3039C57.1508 91.376 56.9367 90.6503 56.5084 90.103C56.0802 89.5677 55.4853 89.2941 54.7478 89.2941C53.915 89.2941 53.2012 89.6153 52.5826 90.2577C51.9521 90.8882 51.6309 91.6377 51.6071 92.5299V100.179H48.1452V92.292C48.1452 91.376 47.9311 90.6503 47.4909 90.103C47.0507 89.5558 46.4559 89.2941 45.7064 89.2941C44.8737 89.2941 44.148 89.6272 43.5056 90.2815C42.8632 90.9358 42.5539 91.7091 42.5539 92.6013V100.191Z" fill="white"/>
<path d="M73.3664 100.5C71.6414 100.5 70.1781 99.8223 68.9528 98.4661C67.7393 97.1218 67.1445 95.4682 67.1445 93.4815C67.1445 91.4234 67.8107 89.7103 69.1312 88.3422C70.4636 86.9265 71.9983 86.2246 73.7352 86.2246C74.6274 86.2246 75.4602 86.4625 76.2572 86.9265C77.0424 87.3905 77.6372 87.9615 78.0417 88.6515L78.3153 86.5339H81.5036V100.215H78.3153L78.0417 97.9426C77.6134 98.6683 76.9591 99.2751 76.0907 99.7747C75.2103 100.251 74.3062 100.5 73.3664 100.5ZM74.4252 97.4073C75.4959 97.4073 76.4 97.0147 77.1138 96.2177C77.8395 95.4444 78.1964 94.4808 78.1964 93.3506C78.1964 92.2323 77.8395 91.2806 77.1138 90.5073C76.4 89.7103 75.5078 89.3177 74.4252 89.3177C73.2831 89.3177 72.379 89.7103 71.7128 90.4836C71.0228 91.2806 70.6778 92.2323 70.6778 93.3506C70.6778 94.4927 71.0228 95.4563 71.7128 96.2415C72.3909 97.0147 73.295 97.4073 74.4252 97.4073Z" fill="white"/>
</svg>
