<svg width="145" height="107" viewBox="0 0 145 107" fill="none" xmlns="http://www.w3.org/2000/svg">
<path d="M64.3862 2.24219C64.3862 6.23535 64.2446 12.2676 63.9614 20.3247C63.6782 28.3818 63.5366 34.4282 63.5366 38.4355C63.5366 42.2163 63.5791 50.8823 63.6499 58.4438C59.5576 54.3657 51.6279 46.2095 51.6279 38.5063C51.6279 33.9893 51.4722 32.1201 51.1323 23.0859C50.7925 14.0518 50.6367 7.31152 50.6367 2.83691C50.6367 1.68994 50.9907 1.10938 51.6846 1.10938C52.3076 1.10938 53.2422 1.16601 54.5166 1.26514C55.791 1.37842 56.7397 1.4209 57.3628 1.4209C58.0283 1.4209 59.0195 1.36426 60.3364 1.26514C61.6675 1.15185 62.6445 1.10938 63.3101 1.10938C64.0039 1.10938 64.3862 1.47754 64.3862 2.24219Z" fill="white"/>
<path d="M145 63.1587C145 63.5693 144.66 64.1641 144.009 64.9146C137.226 72.7451 128.843 76.6675 118.832 76.6675C108.41 76.6675 100.07 72.8584 93.8252 65.2686C87.9771 58.1743 85.0601 49.3384 85.0601 38.7041C85.0601 28.0981 88.062 19.2197 93.981 12.0547C100.325 4.37988 108.665 0.5 119.059 0.5C129.594 0.5 137.764 4.04004 143.527 11.1626C144.094 11.8706 144.363 12.5078 144.363 12.9893C144.363 13.5698 143.442 15.3257 141.587 18.2144C139.732 21.1172 138.614 22.5757 138.231 22.5757C137.792 22.5757 136.716 21.7119 135.045 20.0127C133.006 17.9312 131.066 16.3594 129.254 15.3257C126.266 13.6123 122.967 12.7627 119.356 12.7627C112.474 12.7627 107.122 15.3823 103.298 20.6216C99.8857 25.3086 98.1724 31.2134 98.1724 38.3501C98.1724 45.4585 99.8574 51.4199 103.242 56.2202C107.051 61.6152 112.389 64.2915 119.243 64.2915C122.655 64.2915 125.94 63.4277 129.112 61.7427C131.194 60.6382 133.318 59.0522 135.47 57.0132C137.269 55.314 138.26 54.4644 138.444 54.4644C138.656 54.4644 139.789 55.8379 141.871 58.585C143.952 61.3604 145 62.8755 145 63.1587ZM63.3101 70.5928C63.8481 71.5273 64.2729 72.5327 64.8535 73.4531C65.4624 74.4302 64.4146 75.1807 63.5366 75.1807C62.9985 75.1807 62.2197 75.124 61.1719 75.0249C60.124 74.9116 59.3169 74.8691 58.8071 74.8691C58.2407 74.8691 57.3911 74.9258 56.23 75.0249C55.0688 75.1382 54.2192 75.1807 53.6528 75.1807C53.0298 75.1807 52.3076 74.6284 51.4438 73.5239C43.9531 63.4136 32.6392 48.333 17.4312 28.2681C15.0664 25.2095 13.6929 23.4961 13.3247 23.1704C12.9849 23.1704 12.8149 23.8784 12.8149 25.3086C12.8149 30.6611 12.8999 38.6758 13.0698 49.395C13.2539 60.1001 13.3389 68.1289 13.3389 73.4673C13.3389 74.6284 12.9849 75.1948 12.291 75.1948C11.7104 75.1948 10.8042 75.1382 9.58643 75.0391C8.38281 74.9258 7.47656 74.8833 6.88184 74.8833C6.25879 74.8833 5.32422 74.9399 4.09229 75.0391C2.87451 75.1523 1.92578 75.1948 1.30273 75.1948C0.424805 75.1948 0 74.8408 0 74.147C0 70.3379 0.184082 64.5889 0.538086 56.8857C0.89209 49.2109 1.07617 43.4336 1.07617 39.5679C1.07617 35.3765 0.92041 27.8008 0.608887 16.8691C0.552246 14.023 0.368164 9.76074 0.113281 4.06836L0.0566406 3.38867C0.0283203 2.85058 0.424805 2.5957 1.30273 2.55322C3.56836 2.51074 5.32422 2.43994 6.59863 2.34082C7.09424 2.3125 8.00049 2.15674 9.35986 1.91602C10.4927 1.70361 11.3989 1.59033 12.0645 1.59033C12.3901 1.59033 12.9282 2.08594 13.6929 3.10547C21.6792 14.0796 33.8853 30.4063 50.3535 52.0713C51.0898 52.9775 51.7554 53.7563 52.3784 54.4219C58.0425 62.8188 59.3169 63.5552 63.3101 70.5928Z" fill="white"/>
<path d="M7.69244 100.626C5.25948 100.626 3.37513 99.9583 2.01554 98.6345C0.667871 97.2868 0 95.5933 0 93.5539C0 91.4907 0.644019 89.7733 1.94398 88.4018C3.25587 87.0064 4.92555 86.3027 6.94109 86.3027C8.9447 86.3027 10.5309 86.9945 11.6997 88.366C12.8804 89.7256 13.4648 91.3237 13.4648 93.1603C13.4648 93.6493 13.4171 94.1144 13.3336 94.5796H3.66136C4.01915 96.6786 5.55764 97.7162 8.28876 97.7162C9.91073 97.7162 11.2107 97.4299 12.1767 96.8575V99.6244C10.8648 100.304 9.37405 100.626 7.69244 100.626ZM3.60173 92.3971H9.91073C9.86302 91.4907 9.56487 90.7155 9.02819 90.0953C8.47958 89.4751 7.764 89.165 6.86953 89.165C5.99891 89.165 5.25948 89.4632 4.6751 90.0476C4.09071 90.632 3.73292 91.4072 3.60173 92.3971Z" fill="white"/>
<path d="M23.578 100.316H20.1074V86.6011H23.3156L23.578 88.8552C24.0669 88.0919 24.7229 87.4717 25.5458 86.9947C26.3568 86.5295 27.2393 86.291 28.1815 86.291C29.6484 86.291 30.8172 86.8158 31.6998 87.8653C32.5704 88.9148 33.0116 90.334 33.0116 92.111V100.304H29.5411V92.4569C29.5411 91.5028 29.3145 90.7514 28.8613 90.2148C28.4081 89.6781 27.7641 89.4038 26.9292 89.4038C25.999 89.4038 25.2119 89.7258 24.5678 90.3698C23.9119 91.0257 23.5899 91.801 23.5899 92.7193V100.316H23.578Z" fill="white"/>
<path d="M47.2393 100.626C44.8064 100.626 42.922 99.9583 41.5624 98.6345C40.2147 97.2868 39.5469 95.5933 39.5469 93.5539C39.5469 91.4907 40.1909 89.7733 41.4909 88.4018C42.8027 87.0064 44.4724 86.3027 46.488 86.3027C48.4916 86.3027 50.0778 86.9945 51.2465 88.366C52.4272 89.7256 53.0116 91.3237 53.0116 93.1603C53.0116 93.6493 52.9639 94.1144 52.8804 94.5796H43.1963C43.5541 96.6786 45.0926 97.7162 47.8237 97.7162C49.4457 97.7162 50.7456 97.4299 51.7117 96.8575V99.6244C50.4117 100.304 48.9209 100.626 47.2393 100.626ZM43.1486 92.3971H49.4576C49.4099 91.4907 49.1117 90.7155 48.5751 90.0953C48.0264 89.4751 47.3109 89.165 46.4164 89.165C45.5458 89.165 44.8064 89.4632 44.222 90.0476C43.6376 90.632 43.2798 91.4072 43.1486 92.3971Z" fill="white"/>
<path d="M63.1248 100.316H59.6543V86.6011H62.8625L63.1248 89.5827C63.9955 87.3882 65.3551 86.291 67.1798 86.291C67.7761 86.291 68.2531 86.3984 68.6109 86.6011V89.8927C68.1458 89.7258 67.621 89.6423 67.0009 89.6423C65.856 89.6423 64.9138 90.0478 64.1982 90.8469C63.4826 91.6459 63.1129 92.6954 63.1129 93.9954V100.316H63.1248Z" fill="white"/>
<path d="M79.4995 106.589C77.806 106.589 76.4106 106.267 75.2776 105.611V102.367C76.4583 103.13 77.8656 103.512 79.5234 103.512C81.1334 103.512 82.338 103.119 83.1609 102.343C83.9719 101.568 84.3774 100.483 84.3774 99.1113V97.6683C83.9123 98.3838 83.2444 98.9921 82.3976 99.4811C81.5509 99.982 80.6325 100.22 79.6546 100.22C77.9611 100.22 76.4941 99.5526 75.2776 98.2288C74.0612 96.9169 73.4648 95.3069 73.4648 93.3987C73.4648 91.4308 74.1327 89.7492 75.4565 88.3777C76.7803 87.0062 78.3069 86.3145 80.0481 86.3145C81.0142 86.3145 81.8729 86.5411 82.6361 87.0062C83.3994 87.4713 83.9838 88.0438 84.3774 88.7355L84.6517 86.6126H87.8479V98.9682C87.8479 101.27 87.0846 103.119 85.57 104.502C84.0554 105.897 82.0279 106.589 79.4995 106.589ZM80.7757 97.1435C81.8848 97.1435 82.7912 96.7619 83.4948 95.9986C84.1985 95.2114 84.5563 94.3051 84.5563 93.2675C84.5563 92.218 84.1985 91.3116 83.4948 90.5483C82.7912 89.785 81.8848 89.4034 80.7757 89.4034C79.6665 89.4034 78.7601 89.785 78.0565 90.5483C77.3647 91.3116 77.0189 92.218 77.0189 93.2675C77.0189 94.3051 77.3767 95.2114 78.0803 95.9986C78.7959 96.7619 79.6904 97.1435 80.7757 97.1435Z" fill="white"/>
<path d="M100.049 106.304H96.4349L99.2614 99.756L93.668 86.6133H97.5082L101.098 95.7369L104.628 86.6133H108.266L100.049 106.304Z" fill="white"/>
</svg>
