<svg width="146" height="101" viewBox="0 0 146 101" fill="none" xmlns="http://www.w3.org/2000/svg">
<path d="M64.5155 2.24544C64.5155 6.24664 64.3736 12.291 64.0898 20.3643C63.806 28.4377 63.6641 34.4962 63.6641 38.5116C63.6641 42.3 63.7067 50.9834 63.7776 58.5602C59.6771 54.4738 51.7315 46.3012 51.7315 38.5825C51.7315 34.0564 51.5754 32.1835 51.2349 23.1311C50.8944 14.0788 50.7383 7.32497 50.7383 2.84136C50.7383 1.69209 51.093 1.11035 51.7882 1.11035C52.4125 1.11035 53.349 1.1671 54.626 1.26643C55.9029 1.37993 56.8536 1.4225 57.4779 1.4225C58.1448 1.4225 59.138 1.36575 60.4575 1.26643C61.7912 1.15292 62.7702 1.11035 63.4371 1.11035C64.1324 1.11035 64.5155 1.47926 64.5155 2.24544Z" fill="white"/>
<path d="M145.292 63.2847C145.292 63.6962 144.951 64.2921 144.298 65.0441C137.502 72.8904 129.102 76.8207 119.071 76.8207C108.628 76.8207 100.271 73.004 94.0139 65.3988C88.154 58.2903 85.2312 49.4366 85.2312 38.7809C85.2312 28.1537 88.2392 19.2574 94.17 12.0779C100.527 4.38769 108.884 0.5 119.298 0.5C129.854 0.5 138.041 4.04716 143.816 11.184C144.384 11.8935 144.653 12.532 144.653 13.0144C144.653 13.5961 143.731 15.3555 141.872 18.25C140.014 21.1587 138.893 22.6201 138.51 22.6201C138.07 22.6201 136.991 21.7546 135.317 20.0519C133.274 17.9662 131.33 16.3913 129.514 15.3555C126.52 13.6387 123.214 12.7874 119.596 12.7874C112.7 12.7874 107.337 15.4123 103.506 20.6621C100.087 25.3585 98.3699 31.2752 98.3699 38.4262C98.3699 45.5489 100.058 51.5224 103.449 56.3323C107.266 61.7382 112.615 64.4198 119.483 64.4198C122.902 64.4198 126.194 63.5543 129.372 61.8659C131.458 60.7592 133.586 59.17 135.743 57.1269C137.545 55.4242 138.538 54.5729 138.722 54.5729C138.935 54.5729 140.07 55.9492 142.156 58.7018C144.242 61.4828 145.292 63.001 145.292 63.2847ZM63.4374 70.7338C63.9766 71.6702 64.4022 72.6776 64.984 73.5999C65.5941 74.5789 64.5441 75.3309 63.6644 75.3309C63.1253 75.3309 62.3449 75.2741 61.2949 75.1748C60.245 75.0613 59.4362 75.0187 58.9254 75.0187C58.3579 75.0187 57.5066 75.0755 56.3431 75.1748C55.1796 75.2883 54.3283 75.3309 53.7608 75.3309C53.1365 75.3309 52.4128 74.7775 51.5473 73.6708C44.0415 63.5401 32.7048 48.4292 17.4662 28.3239C15.0967 25.2592 13.7204 23.5424 13.3515 23.216C13.011 23.216 12.8407 23.9254 12.8407 25.3585C12.8407 30.7218 12.9259 38.7526 13.0961 49.4934C13.2806 60.22 13.3657 68.2649 13.3657 73.6141C13.3657 74.7775 13.011 75.3451 12.3157 75.3451C11.734 75.3451 10.8259 75.2883 9.60571 75.189C8.39968 75.0755 7.4916 75.0329 6.89568 75.0329C6.27138 75.0329 5.33493 75.0897 4.10052 75.189C2.88029 75.3025 1.92966 75.3451 1.30535 75.3451C0.425659 75.3451 0 74.9904 0 74.2951C0 70.4784 0.184452 64.7178 0.539168 56.9992C0.893884 49.3089 1.07834 43.52 1.07834 39.6465C1.07834 35.4466 0.922262 27.8557 0.610112 16.9021C0.553357 14.0502 0.368905 9.77937 0.113509 4.07554L0.0567546 3.39448C0.0283773 2.85531 0.425659 2.59992 1.30535 2.55735C3.57554 2.51479 5.33493 2.44384 6.61191 2.34452C7.10851 2.31615 8.01658 2.16007 9.37869 1.91886C10.5138 1.70603 11.4219 1.59252 12.0887 1.59252C12.4151 1.59252 12.9542 2.08913 13.7204 3.11071C21.7228 14.1069 33.9534 30.4664 50.4548 52.175C51.1926 53.0831 51.8595 53.8635 52.4838 54.5303C58.1592 62.9442 59.4362 63.682 63.4374 70.7338Z" fill="white"/>
<path d="M3.40341 100.196H0V80.6523H3.40341V88.9913C3.85954 88.2311 4.46771 87.6112 5.25132 87.1551C6.03492 86.6873 6.91209 86.4651 7.89452 86.4651C9.33308 86.4651 10.4909 86.9797 11.3564 88.0206C12.2219 89.0615 12.6546 90.4416 12.6546 92.1725V100.207H9.25121V92.5117C9.25121 91.5877 9.02899 90.8509 8.58456 90.3129C8.14013 89.7749 7.52026 89.5059 6.71327 89.5059C5.78932 89.5059 5.00571 89.8217 4.37415 90.4532C3.73089 91.0731 3.41511 91.8333 3.41511 92.7573V100.196H3.40341Z" fill="white"/>
<path d="M26.6081 100.5C24.2222 100.5 22.3743 99.8446 21.041 98.5464C19.7194 97.2248 19.0645 95.564 19.0645 93.564C19.0645 91.5407 19.696 89.8565 20.9708 88.5115C22.2573 87.1432 23.8947 86.4531 25.8713 86.4531C27.8361 86.4531 29.3917 87.1315 30.5378 88.4765C31.6957 89.8098 32.2688 91.377 32.2688 93.1781C32.2688 93.6576 32.222 94.1137 32.1401 94.5699H22.6433C22.9942 96.6283 24.5029 97.6458 27.1812 97.6458C28.7718 97.6458 30.0466 97.3651 30.994 96.8037V99.5171C29.7191 100.184 28.2572 100.5 26.6081 100.5ZM22.6082 92.4296H28.7952C28.7484 91.5407 28.456 90.7805 27.9297 90.1723C27.3917 89.5642 26.69 89.2601 25.8128 89.2601C24.959 89.2601 24.2339 89.5525 23.6608 90.1255C23.076 90.6986 22.7252 91.4588 22.6082 92.4296Z" fill="white"/>
<path d="M44.1969 100.5C42.501 100.5 41.0625 99.8329 39.8578 98.4996C38.6649 97.178 38.0801 95.5523 38.0801 93.5992C38.0801 91.5758 38.735 89.8917 40.0332 88.5467C41.3431 87.1549 42.8519 86.4648 44.5594 86.4648C45.4366 86.4648 46.2553 86.6988 47.0389 87.1549C47.8108 87.611 48.3956 88.1724 48.7932 88.8507L49.0622 86.7689H52.1967V100.219H49.0622L48.7932 97.985C48.3722 98.6984 47.7289 99.2949 46.8752 99.7861C45.998 100.254 45.1091 100.5 44.1969 100.5ZM45.2261 97.4587C46.2787 97.4587 47.1676 97.0727 47.8693 96.2891C48.5827 95.5289 48.9336 94.5816 48.9336 93.4705C48.9336 92.3711 48.5827 91.4355 47.8693 90.6753C47.1676 89.8917 46.2904 89.5057 45.2261 89.5057C44.1033 89.5057 43.2144 89.8917 42.5595 90.6519C41.8811 91.4355 41.542 92.3711 41.542 93.4705C41.542 94.5933 41.8811 95.5406 42.5595 96.3125C43.2261 97.0727 44.115 97.4587 45.2261 97.4587Z" fill="white"/>
<path d="M64.1267 100.195H60.7232V89.4937H58.0566V86.7569H60.7232V84.2424L64.1267 82.3594V86.7569H68.0447L67.1324 89.5054H64.1267V100.195Z" fill="white"/>
</svg>
