<svg width="501" height="93" viewBox="0 0 501 93" fill="none" xmlns="http://www.w3.org/2000/svg">
<path d="M134.628 83.0917C127.516 83.0917 121.637 80.7483 117.032 76.0614C112.468 71.2922 110.166 65.5364 110.166 58.7527C110.166 51.7635 112.592 45.8843 117.402 41.074C122.294 36.1815 128.338 33.7559 135.656 33.7559C140.754 33.7559 144.619 34.7426 147.25 36.7571V47.7755C144.372 45.5554 140.795 44.4453 136.52 44.4453C132.203 44.4453 128.79 45.802 126.282 48.4744C123.733 51.1056 122.459 54.3947 122.459 58.3005C122.459 62.2473 123.733 65.5775 126.282 68.291C128.831 71.0044 132.326 72.4023 136.807 72.4023C141.001 72.4023 144.496 71.4567 147.291 69.6066V79.8027C143.879 81.9817 139.685 83.0917 134.628 83.0917Z" fill="white"/>
<path d="M182.525 82.0225H170.52V13.3223H182.525V82.0225Z" fill="white"/>
<path d="M219.074 24.5873C217.717 25.9029 216.032 26.5607 213.935 26.5607C211.838 26.5607 210.153 25.9029 208.796 24.5873C207.439 23.2717 206.781 21.586 206.781 19.5304C206.781 17.4747 207.439 15.7479 208.796 14.4734C210.153 13.1578 211.838 12.5 213.935 12.5C216.032 12.5 217.717 13.1578 219.074 14.4734C220.513 15.7891 221.212 17.4747 221.212 19.5304C221.212 21.586 220.513 23.2717 219.074 24.5873ZM219.937 82.0225H207.932V34.7423H219.937V82.0225Z" fill="white"/>
<path d="M257.228 82.0229H245.223V34.7427H256.282L257.187 42.5131C258.79 39.8818 260.969 37.7851 263.724 36.1405C266.478 34.496 269.438 33.7148 272.563 33.7148C275.688 33.7148 278.483 34.5782 280.909 36.305C283.335 38.0317 285.226 40.4574 286.5 43.5409C290.982 37.0039 296.655 33.7148 303.562 33.7148C308.455 33.7148 312.319 35.5238 315.156 39.1418C318.158 42.6775 319.638 47.4878 319.638 53.5314V82.0229H307.674V54.7648C307.674 51.558 306.934 49.0501 305.454 47.1589C303.973 45.3088 301.918 44.3632 299.369 44.3632C296.491 44.3632 294.024 45.4732 291.886 47.6933C289.707 49.8723 288.597 52.4625 288.515 55.546V81.9818H276.551V54.7237C276.551 51.558 275.811 49.0501 274.29 47.1589C272.769 45.2677 270.713 44.3632 268.123 44.3632C265.245 44.3632 262.737 45.5143 260.517 47.7756C258.297 50.0368 257.228 52.7092 257.228 55.7926V82.0229Z" fill="white"/>
<path d="M363.711 83.0917C357.75 83.0917 352.693 80.7483 348.458 76.0614C344.265 71.4156 342.209 65.7008 342.209 58.8349C342.209 51.7223 344.511 45.802 349.075 41.074C353.68 36.1815 358.983 33.7559 364.986 33.7559C368.069 33.7559 370.947 34.5781 373.702 36.1815C376.415 37.785 378.471 39.7584 379.869 42.143L380.814 34.8248H391.833V82.105H380.814L379.869 74.2524C378.389 76.7603 376.127 78.8571 373.126 80.5838C370.084 82.2283 366.959 83.0917 363.711 83.0917ZM367.37 72.4023C371.07 72.4023 374.195 71.0456 376.662 68.291C379.17 65.6186 380.403 62.2884 380.403 58.3827C380.403 54.518 379.17 51.229 376.662 48.5566C374.195 45.802 371.112 44.4453 367.37 44.4453C363.423 44.4453 360.299 45.802 357.996 48.4744C355.612 51.229 354.42 54.518 354.42 58.3827C354.42 62.3295 355.612 65.6597 357.996 68.3732C360.34 71.0456 363.464 72.4023 367.37 72.4023Z" fill="white"/>
</svg>
