<svg width="500" height="52" viewBox="0 0 500 52" fill="none" xmlns="http://www.w3.org/2000/svg">
<path d="M12.248 50.2468H0V1.54689H11.3407L12.2984 9.57043C14.0625 6.82821 16.3306 4.64459 19.2036 2.96878C22.0766 1.29298 25.1512 0.480469 28.5282 0.480469C33.7198 0.480469 37.8528 2.3594 40.9274 6.06648C44.002 9.82434 45.5645 14.8518 45.5645 21.1487V50.2468H33.2157V22.3675C33.2157 18.9651 32.4093 16.3244 30.8468 14.3947C29.2843 12.465 26.9657 11.5001 24.0423 11.5001C20.7661 11.5001 17.994 12.6681 15.7258 14.9533C13.4073 17.2893 12.248 20.0823 12.248 23.2816V50.2468Z" fill="white"/>
<path d="M95.6658 51.364C87.0972 51.364 80.444 49.028 75.6557 44.3053C70.9178 39.5318 68.5488 33.5395 68.5488 26.2777C68.5488 18.9651 70.817 12.8713 75.4037 7.94541C80.0408 2.96879 85.9379 0.480469 93.0448 0.480469C100.101 0.480469 105.696 2.918 109.829 7.84385C113.962 12.6681 116.029 18.3557 116.029 24.9066C116.029 26.6332 115.877 28.309 115.575 29.934H81.4521C82.7121 37.3989 88.1557 41.106 97.7827 41.106C103.529 41.106 108.065 40.0904 111.492 38.0591V47.86C106.855 50.196 101.613 51.364 95.6658 51.364ZM81.2504 22.1136H103.529C103.377 18.8635 102.319 16.1721 100.404 13.9377C98.4883 11.7033 95.9178 10.6369 92.7928 10.6369C89.7182 10.6369 87.1476 11.7033 85.0307 13.7853C82.9641 15.8166 81.7041 18.6096 81.2504 22.1136Z" fill="white"/>
<path d="M162.297 50.2467H150.402L133.467 1.54688H146.672L157.358 35.52L167.892 1.54688H178.426L188.91 35.6215L199.545 1.54688H212.096L195.06 50.2467H183.265L172.832 18.0002L162.297 50.2467Z" fill="white"/>
<path d="M294.104 51.364C286.795 51.364 280.797 48.9264 276.11 44.1021C271.422 39.2271 269.104 33.2348 269.104 26.2269C269.104 19.0159 271.573 12.9728 276.513 7.99619C281.503 2.96878 287.702 0.480469 295.162 0.480469C300.353 0.480469 304.335 1.49611 307.057 3.57817V14.9533C304.134 12.6681 300.454 11.5001 296.069 11.5001C291.634 11.5001 288.156 12.8713 285.585 15.6643C282.964 18.4065 281.654 21.7581 281.654 25.7699C281.654 29.8324 282.964 33.2856 285.585 36.0786C288.206 38.8716 291.785 40.2935 296.321 40.2935C300.606 40.2935 304.184 39.3286 307.007 37.3989V47.9108C303.579 50.196 299.295 51.364 294.104 51.364Z" fill="white"/>
<path d="M349.143 51.364C343.045 51.364 337.853 48.9264 333.518 44.1021C329.234 39.3286 327.117 33.3872 327.117 26.3285C327.117 19.0159 329.436 12.922 334.123 7.99619C338.811 2.96878 344.254 0.480469 350.403 0.480469C353.528 0.480469 356.502 1.29298 359.325 2.96878C362.097 4.64459 364.214 6.67586 365.625 9.1134L366.583 1.59767H377.873V50.2975H366.583L365.625 42.1724C364.113 44.7623 361.795 46.9459 358.72 48.6725C355.645 50.3991 352.42 51.364 349.143 51.364ZM352.873 40.3443C356.653 40.3443 359.829 38.9224 362.349 36.1294C364.92 33.3872 366.18 29.934 366.18 25.9222C366.18 21.9104 364.92 18.5588 362.349 15.8166C359.829 12.9728 356.653 11.6017 352.873 11.6017C348.841 11.6017 345.666 12.9728 343.297 15.7658C340.877 18.6096 339.668 22.012 339.668 25.973C339.668 30.0356 340.877 33.4887 343.297 36.2817C345.666 38.9224 348.841 40.3443 352.873 40.3443Z" fill="white"/>
<path d="M416.027 50.2468H403.779V1.54689H415.12L416.078 12.1603C419.152 4.39068 423.941 0.480469 430.392 0.480469C432.459 0.480469 434.172 0.835945 435.433 1.54689V13.2267C433.82 12.6174 431.904 12.3127 429.787 12.3127C425.755 12.3127 422.428 13.7346 419.908 16.5783C417.388 19.4221 416.078 23.1292 416.078 27.7504V50.2468H416.027Z" fill="white"/>
<path d="M479.636 51.364C471.068 51.364 464.415 49.028 459.626 44.3053C454.889 39.5318 452.52 33.5395 452.52 26.2777C452.52 18.9651 454.788 12.8713 459.374 7.94541C464.011 2.96879 469.909 0.480469 477.016 0.480469C484.072 0.480469 489.667 2.918 493.8 7.84385C497.933 12.6681 499.999 18.3557 499.999 24.9066C499.999 26.6332 499.848 28.309 499.546 29.934H465.423C466.683 37.3989 472.126 41.106 481.753 41.106C487.499 41.106 492.036 40.0904 495.463 38.0591V47.86C490.826 50.196 485.534 51.364 479.636 51.364ZM465.221 22.1136H487.499C487.348 18.8635 486.29 16.1721 484.374 13.9377C482.459 11.7033 479.889 10.6369 476.764 10.6369C473.689 10.6369 471.118 11.7033 469.001 13.7853C466.935 15.8166 465.675 18.6096 465.221 22.1136Z" fill="white"/>
</svg>
