<svg width="500" height="93" viewBox="0 0 500 93" fill="none" xmlns="http://www.w3.org/2000/svg">
<path d="M12.248 83.2468H0V34.5469H11.3407L12.2984 42.5704C14.0625 39.8282 16.3306 37.6446 19.2036 35.9688C22.0766 34.293 25.1512 33.4805 28.5282 33.4805C33.7198 33.4805 37.8528 35.3594 40.9274 39.0665C44.002 42.8243 45.5645 47.8518 45.5645 54.1487V83.2468H33.2157V55.3675C33.2157 51.9651 32.4093 49.3244 30.8468 47.3947C29.2843 45.465 26.9657 44.5001 24.0423 44.5001C20.7661 44.5001 17.994 45.6681 15.7258 47.9533C13.4073 50.2893 12.248 53.0823 12.248 56.2816V83.2468Z" fill="white"/>
<path d="M95.6658 84.364C87.0972 84.364 80.444 82.028 75.6557 77.3053C70.9178 72.5318 68.5488 66.5395 68.5488 59.2777C68.5488 51.9651 70.817 45.8713 75.4037 40.9454C80.0408 35.9688 85.9379 33.4805 93.0448 33.4805C100.101 33.4805 105.696 35.918 109.829 40.8438C113.962 45.6681 116.029 51.3557 116.029 57.9066C116.029 59.6332 115.877 61.309 115.575 62.934H81.4521C82.7121 70.3989 88.1557 74.106 97.7827 74.106C103.529 74.106 108.065 73.0904 111.492 71.0591V80.86C106.855 83.196 101.613 84.364 95.6658 84.364ZM81.2504 55.1136H103.529C103.377 51.8635 102.319 49.1721 100.404 46.9377C98.4883 44.7033 95.9178 43.6369 92.7928 43.6369C89.7182 43.6369 87.1476 44.7033 85.0307 46.7853C82.9641 48.8166 81.7041 51.6096 81.2504 55.1136Z" fill="white"/>
<path d="M162.297 83.2467H150.402L133.467 34.5469H146.672L157.358 68.52L167.892 34.5469H178.426L188.91 68.6215L199.545 34.5469H212.096L195.06 83.2467H183.265L172.832 51.0002L162.297 83.2467Z" fill="white"/>
<path d="M294.104 84.364C286.795 84.364 280.797 81.9264 276.11 77.1021C271.422 72.2271 269.104 66.2348 269.104 59.2269C269.104 52.0159 271.573 45.9728 276.513 40.9962C281.503 35.9688 287.702 33.4805 295.162 33.4805C300.353 33.4805 304.335 34.4961 307.057 36.5782V47.9533C304.134 45.6681 300.454 44.5001 296.069 44.5001C291.634 44.5001 288.156 45.8713 285.585 48.6643C282.964 51.4065 281.654 54.7581 281.654 58.7699C281.654 62.8324 282.964 66.2856 285.585 69.0786C288.206 71.8716 291.785 73.2935 296.321 73.2935C300.606 73.2935 304.184 72.3286 307.007 70.3989V80.9108C303.579 83.196 299.295 84.364 294.104 84.364Z" fill="white"/>
<path d="M349.143 84.364C343.045 84.364 337.853 81.9264 333.518 77.1021C329.234 72.3286 327.117 66.3872 327.117 59.3285C327.117 52.0159 329.436 45.922 334.123 40.9962C338.811 35.9688 344.254 33.4805 350.403 33.4805C353.528 33.4805 356.502 34.293 359.325 35.9688C362.097 37.6446 364.214 39.6759 365.625 42.1134L366.583 34.5977H377.873V83.2975H366.583L365.625 75.1724C364.113 77.7623 361.795 79.9459 358.72 81.6725C355.645 83.3991 352.42 84.364 349.143 84.364ZM352.873 73.3443C356.653 73.3443 359.829 71.9224 362.349 69.1294C364.92 66.3872 366.18 62.934 366.18 58.9222C366.18 54.9104 364.92 51.5588 362.349 48.8166C359.829 45.9728 356.653 44.6017 352.873 44.6017C348.841 44.6017 345.666 45.9728 343.297 48.7658C340.877 51.6096 339.668 55.012 339.668 58.973C339.668 63.0356 340.877 66.4887 343.297 69.2817C345.666 71.9224 348.841 73.3443 352.873 73.3443Z" fill="white"/>
<path d="M416.027 83.2468H403.779V34.5469H415.12L416.078 45.1603C419.152 37.3907 423.941 33.4805 430.392 33.4805C432.459 33.4805 434.172 33.8359 435.433 34.5469V46.2267C433.82 45.6174 431.904 45.3127 429.787 45.3127C425.755 45.3127 422.428 46.7346 419.908 49.5783C417.388 52.4221 416.078 56.1292 416.078 60.7504V83.2468H416.027Z" fill="white"/>
<path d="M479.636 84.364C471.068 84.364 464.415 82.028 459.626 77.3053C454.889 72.5318 452.52 66.5395 452.52 59.2777C452.52 51.9651 454.788 45.8713 459.374 40.9454C464.011 35.9688 469.909 33.4805 477.016 33.4805C484.072 33.4805 489.667 35.918 493.8 40.8438C497.933 45.6681 499.999 51.3557 499.999 57.9066C499.999 59.6332 499.848 61.309 499.546 62.934H465.423C466.683 70.3989 472.126 74.106 481.753 74.106C487.499 74.106 492.036 73.0904 495.463 71.0591V80.86C490.826 83.196 485.534 84.364 479.636 84.364ZM465.221 55.1136H487.499C487.348 51.8635 486.29 49.1721 484.374 46.9377C482.459 44.7033 479.889 43.6369 476.764 43.6369C473.689 43.6369 471.118 44.7033 469.001 46.7853C466.935 48.8166 465.675 51.6096 465.221 55.1136Z" fill="white"/>
</svg>
