<svg width="501" height="108" viewBox="0 0 501 108" fill="none" xmlns="http://www.w3.org/2000/svg">
<path d="M93.8577 82.7662C85.4682 82.7662 78.9704 80.4632 74.2822 75.8983C69.635 71.2512 67.332 65.4114 67.332 58.379C67.332 51.2644 69.5528 45.3424 74.0354 40.613C78.5592 35.8014 84.3167 33.375 91.2668 33.375C98.1758 33.375 103.645 35.7603 107.676 40.4896C111.747 45.1779 113.762 50.6887 113.762 57.0219C113.762 58.708 113.598 60.3119 113.31 61.9158H79.9574C81.1912 69.1538 86.4963 72.7317 95.9139 72.7317C101.507 72.7317 105.99 71.7447 109.321 69.7707V79.3117C104.797 81.6558 99.6563 82.7662 93.8577 82.7662ZM79.7518 54.3899H101.507C101.342 51.2644 100.314 48.5913 98.4637 46.4528C96.572 44.3143 94.1044 43.245 91.0201 43.245C88.0179 43.245 85.4682 44.2731 83.4531 46.2883C81.4379 48.3034 80.2042 50.9765 79.7518 54.3899Z" fill="white"/>
<path d="M148.635 81.6971H136.668V34.4032H147.731L148.635 42.1759C150.321 39.5439 152.583 37.4054 155.421 35.7604C158.217 34.1565 161.261 33.334 164.51 33.334C169.568 33.334 173.598 35.1435 176.642 38.7625C179.644 42.3815 181.165 47.2754 181.165 53.403V81.6559H169.198V54.5956C169.198 51.3056 168.417 48.7148 166.854 46.8641C165.291 45.0135 163.07 44.0676 160.192 44.0676C156.984 44.0676 154.269 45.178 152.049 47.3988C149.787 49.6606 148.676 52.3338 148.676 55.5004V81.6971H148.635Z" fill="white"/>
<path d="M230.229 82.7662C221.839 82.7662 215.342 80.4632 210.653 75.8983C206.006 71.2512 203.703 65.4114 203.703 58.379C203.703 51.2644 205.924 45.3424 210.407 40.613C214.93 35.8014 220.688 33.375 227.638 33.375C234.547 33.375 240.017 35.7603 244.047 40.4896C248.118 45.1779 250.133 50.6887 250.133 57.0219C250.133 58.708 249.969 60.3119 249.681 61.9158H216.287C217.521 69.1538 222.826 72.7317 232.244 72.7317C237.837 72.7317 242.32 71.7447 245.651 69.7707V79.3117C241.168 81.6558 236.027 82.7662 230.229 82.7662ZM216.123 54.3899H237.878C237.714 51.2644 236.685 48.5913 234.835 46.4528C232.943 44.3143 230.476 43.245 227.391 43.245C224.389 43.245 221.839 44.2731 219.824 46.2883C217.809 48.3034 216.575 50.9765 216.123 54.3899Z" fill="white"/>
<path d="M285.006 81.6971H273.039V34.4032H284.102L285.006 44.6845C288.009 37.1175 292.697 33.334 298.989 33.334C301.045 33.334 302.69 33.7041 303.924 34.4032V45.7538C302.32 45.178 300.511 44.8901 298.372 44.8901C294.424 44.8901 291.175 46.2884 288.708 49.0438C286.24 51.7991 284.965 55.4181 284.965 59.9008V81.6971H285.006Z" fill="white"/>
<path d="M341.471 103.329C335.632 103.329 330.82 102.218 326.913 99.9564V88.7703C330.985 91.4023 335.837 92.7184 341.554 92.7184C347.106 92.7184 351.259 91.3612 354.097 88.6881C356.893 86.015 358.292 82.2726 358.292 77.5432V72.5671C356.688 75.0346 354.385 77.132 351.465 78.8181C348.545 80.5453 345.378 81.3678 342.006 81.3678C336.166 81.3678 331.108 79.0648 326.913 74.5C322.718 69.9762 320.662 64.4243 320.662 57.8443C320.662 51.0587 322.965 45.26 327.53 40.5307C332.095 35.8013 337.359 33.416 343.363 33.416C346.694 33.416 349.655 34.1974 352.287 35.8013C354.919 37.4051 356.934 39.3791 358.292 41.7644L359.237 34.4441H370.259V77.0497C370.259 84.9868 367.627 91.3612 362.404 96.1317C357.181 100.943 350.19 103.329 341.471 103.329ZM345.872 70.7576C349.696 70.7576 352.822 69.4416 355.248 66.8096C357.675 64.0953 358.908 60.9698 358.908 57.3919C358.908 53.7729 357.675 50.6474 355.248 48.0154C352.822 45.3834 349.696 44.0674 345.872 44.0674C342.047 44.0674 338.922 45.3834 336.495 48.0154C334.11 50.6474 332.917 53.7729 332.917 57.3919C332.917 60.9698 334.151 64.0953 336.578 66.8096C339.045 69.4416 342.129 70.7576 345.872 70.7576Z" fill="white"/>
<path d="M412.33 102.343H399.869L409.616 79.7651L390.328 34.4453H403.57L415.949 65.906L428.122 34.4453H440.665L412.33 102.343Z" fill="white"/>
</svg>
