<svg width="501" height="93" viewBox="0 0 501 93" fill="none" xmlns="http://www.w3.org/2000/svg">
<path d="M145.212 75.5895H133.5V8.33398H145.212V37.0313C146.782 34.4151 148.875 32.2819 151.572 30.7122C154.268 29.1023 157.287 28.3376 160.668 28.3376C165.618 28.3376 169.603 30.1085 172.581 33.6906C175.56 37.2728 177.049 42.0221 177.049 47.9789V75.6297H165.337V49.1461C165.337 45.9665 164.572 43.4308 163.043 41.5794C161.513 39.7279 159.38 38.8022 156.603 38.8022C153.423 38.8022 150.726 39.8889 148.553 42.0624C146.339 44.1955 145.253 46.8117 145.253 49.9913V75.5895H145.212Z" fill="white"/>
<path d="M225.066 76.6355C216.855 76.6355 210.496 74.3816 205.907 69.914C201.359 65.3659 199.105 59.6506 199.105 52.7681C199.105 45.805 201.279 40.0092 205.666 35.3806C210.093 30.6715 215.728 28.2969 222.53 28.2969C229.292 28.2969 234.645 30.6313 238.589 35.2599C242.574 39.8482 244.546 45.2416 244.546 51.4398C244.546 53.09 244.385 54.6597 244.103 56.2294H211.422C212.629 63.3132 217.821 66.8148 227.038 66.8148C232.512 66.8148 236.899 65.8489 240.159 63.9169V73.2546C235.772 75.5488 230.741 76.6355 225.066 76.6355ZM211.301 48.8639H232.592C232.431 45.805 231.425 43.1889 229.614 41.0959C227.763 39.003 225.348 37.9566 222.329 37.9566C219.391 37.9566 216.895 38.9628 214.923 40.935C212.911 42.9071 211.703 45.5233 211.301 48.8639Z" fill="white"/>
<path d="M285.599 76.6363C279.763 76.6363 274.812 74.3421 270.667 69.7537C266.561 65.2057 264.549 59.6111 264.549 52.8896C264.549 45.9266 266.803 40.1307 271.27 35.5022C275.778 30.7126 280.97 28.3379 286.847 28.3379C289.865 28.3379 292.683 29.1429 295.379 30.7126C298.036 32.2823 300.048 34.2142 301.417 36.5486L302.342 29.3844H313.129V75.6703H302.342L301.417 67.9828C299.968 70.438 297.754 72.4907 294.816 74.1811C291.797 75.791 288.738 76.6363 285.599 76.6363ZM289.141 66.1716C292.763 66.1716 295.822 64.8434 298.237 62.1468C300.692 59.5306 301.9 56.2705 301.9 52.4468C301.9 48.6635 300.692 45.4436 298.237 42.8274C295.822 40.1307 292.803 38.8025 289.141 38.8025C285.277 38.8025 282.218 40.1307 279.964 42.7469C277.63 45.4436 276.462 48.6635 276.462 52.4468C276.462 56.3107 277.63 59.5708 279.964 62.2273C282.258 64.8434 285.317 66.1716 289.141 66.1716Z" fill="white"/>
<path d="M354.184 75.5901H342.472V38.7626H333.295V29.3444H342.472V20.691L354.184 14.2109V29.3444H367.667L364.528 38.8029H354.184V75.5901Z" fill="white"/>
</svg>
