<svg width="25" height="26" viewBox="0 0 25 26" fill="none" xmlns="http://www.w3.org/2000/svg">
<g clip-path="url(#clip0_3800_1681)">
<path fill-rule="evenodd" clip-rule="evenodd" d="M12.5762 0.499997C5.67302 0.499997 0.076171 6.09685 0.0761713 13C0.0761716 19.9032 5.67302 25.5 12.5762 25.5C18.8152 25.5 23.987 20.928 24.9245 14.9532L16.1902 14.9532L16.1902 18.1266L12.5762 18.1266L12.5762 14.9532L9.82294 14.9532C6.6902 14.9532 4.95902 13.0876 4.95902 10.2312C4.95902 8.86415 5.20277 7.43278 5.20277 7.43278L8.27926 7.43278L8.27926 9.00946C8.27926 10.5625 9.24338 11.0468 10.2324 11.0468L12.5762 11.0468L12.5762 7.57978L16.1902 8.1344L16.1902 11.0468L24.9245 11.0468C23.987 5.07029 18.8152 0.499997 12.5762 0.499997Z" fill="white"/>
</g>
<defs>
<clipPath id="clip0_3800_1681">
<rect width="25" height="25" fill="white" transform="translate(0 25.5) rotate(-90)"/>
</clipPath>
</defs>
</svg>
