<svg width="25" height="26" viewBox="0 0 25 26" fill="none" xmlns="http://www.w3.org/2000/svg">
<g clip-path="url(#clip0_3800_1684)">
<path fill-rule="evenodd" clip-rule="evenodd" d="M4.32657 6.32658C4.32657 5.49989 4.99839 4.82657 5.82658 4.82657C6.65476 4.82657 7.32658 5.49989 7.32658 6.32658C7.32658 7.15458 6.65477 7.82808 5.82658 7.82808C4.99839 7.82808 4.32657 7.15458 4.32657 6.32658ZM8.3329 12.9999C8.3329 15.3015 10.1985 17.1656 12.4984 17.1656C14.8 17.1656 16.6656 15.3015 16.6656 12.9999C16.6656 10.6983 14.8 8.83271 12.4984 8.83271C10.1985 8.83271 8.3329 10.6983 8.3329 12.9999ZM6.0812 12.9999C6.0812 9.45465 8.95315 6.5812 12.4984 6.5812C16.0454 6.5812 18.9188 9.45465 18.9188 12.9999C18.9188 16.5454 16.0454 19.4188 12.4984 19.4188C8.95315 19.4188 6.0812 16.5454 6.0812 12.9999ZM2.2515 11.8796L2.2515 14.1202C2.25469 15.5625 2.26088 16.2844 2.27813 16.8984L2.28751 17.175C2.29688 17.45 2.30944 17.7219 2.32501 18.0515C2.37976 19.2688 2.58282 19.9312 2.75476 20.3719C2.98126 20.9546 3.25313 21.3718 3.68907 21.8094C4.1282 22.2469 4.5437 22.5172 5.12664 22.7452C5.56726 22.9157 6.2297 23.1187 7.44846 23.175C7.77658 23.1906 8.04996 23.2016 8.32502 23.2125L8.60158 23.2219C9.21565 23.2374 9.93602 23.2453 11.3781 23.2468L13.6204 23.2468C15.0625 23.2453 15.7844 23.2374 16.3969 23.2219L16.675 23.2125C16.9485 23.2016 17.2204 23.1906 17.55 23.175C18.7688 23.1187 19.4312 22.9157 19.8719 22.7452C20.4548 22.5172 20.872 22.2454 21.3094 21.8094C21.7454 21.3718 22.0172 20.9546 22.2437 20.3719C22.4157 19.9312 22.6187 19.2688 22.675 18.0515C22.6861 17.7765 22.6969 17.5421 22.7063 17.3124L22.7157 17.0359C22.7359 16.3907 22.7438 15.6735 22.747 14.1202L22.747 11.8796C22.7453 10.4358 22.7376 9.71565 22.7189 9.10158L22.711 8.82502C22.7016 8.54996 22.6891 8.27808 22.675 7.94846C22.6187 6.7297 22.4157 6.06876 22.2437 5.62814C22.0172 5.0452 21.7454 4.62801 21.3094 4.19057C20.872 3.75313 20.4548 3.48276 19.8719 3.25457C19.4312 3.08432 18.7688 2.88126 17.55 2.82501C17.2204 2.80926 16.9485 2.79688 16.675 2.78751L16.3969 2.77813C15.7843 2.76238 15.0625 2.75469 13.6204 2.75301L11.3781 2.75301C9.93602 2.75469 9.21565 2.76238 8.60158 2.77813L8.32502 2.78751C8.03275 2.79795 7.74055 2.81045 7.44845 2.82501C6.2297 2.88126 5.56726 3.08432 5.12664 3.25457C4.5437 3.48276 4.1282 3.75313 3.68907 4.19057C3.25313 4.62801 2.98126 5.0452 2.75476 5.62814C2.58282 6.06876 2.37976 6.7297 2.32501 7.94846C2.30944 8.27808 2.29688 8.54996 2.28751 8.82502L2.27813 9.10158C2.26088 9.71565 2.25469 10.4358 2.2515 11.8796ZM-6.10595e-07 11.5312C0.00318684 10.1703 0.0125618 9.49065 0.0313118 8.87808L0.0483743 8.45471C0.0562493 8.26552 0.0641247 8.06714 0.0749997 7.84683C0.134437 6.51558 0.346875 5.6062 0.654751 4.81082C0.975002 3.99051 1.40156 3.29376 2.09682 2.59682C2.79226 1.90307 3.48901 1.4765 4.31101 1.15457C5.1062 0.846877 6.01558 0.634251 7.34533 0.575001C7.62339 0.562438 7.86096 0.551562 8.09533 0.543687L8.37658 0.532812C8.99065 0.512375 9.67034 0.503002 11.0312 0.500002L13.9673 0.500002C15.3282 0.503002 16.0079 0.512374 16.6219 0.532812L16.9032 0.543687C17.1375 0.551562 17.3751 0.562438 17.6532 0.575001C18.9829 0.634251 19.8923 0.846877 20.6875 1.15457C21.5095 1.4765 22.2062 1.90307 22.9017 2.59682C23.5969 3.29376 24.0235 3.99051 24.3437 4.81082C24.6516 5.6062 24.8641 6.51558 24.925 7.84683C24.9361 8.12339 24.9469 8.36246 24.9563 8.59533L24.9657 8.87808C24.9859 9.49065 24.9953 10.1703 24.9985 11.5312L24.9985 14.4671C24.9953 15.8282 24.9859 16.5094 24.9657 17.1219L24.9563 17.4032C24.9469 17.6375 24.9361 17.8766 24.925 18.1532C24.8641 19.4844 24.6516 20.3921 24.3437 21.189C24.0235 22.0093 23.5969 22.7062 22.9017 23.4032C22.2062 24.0969 21.5095 24.5235 20.6875 24.8437C19.8923 25.1531 18.9829 25.3641 17.6532 25.425C17.4314 25.4344 17.2345 25.4437 17.0438 25.4516L16.6219 25.4672C16.0079 25.4874 15.3282 25.4968 13.9673 25.5L11.0312 25.5C9.67034 25.4968 8.99065 25.4874 8.37658 25.4672L7.95471 25.4516C7.76402 25.4437 7.56714 25.4344 7.34533 25.425C6.01558 25.3641 5.1062 25.1531 4.31101 24.8437C3.48901 24.5235 2.79226 24.0969 2.09682 23.4032C1.40157 22.7062 0.975002 22.0093 0.654752 21.189C0.346876 20.3921 0.134438 19.4844 0.0750001 18.1532C0.0641251 17.9312 0.0562497 17.7343 0.0483747 17.5453L0.0313122 17.1219C0.0125621 16.5094 0.00318709 15.8282 -4.82263e-07 14.4671L-6.10595e-07 11.5312Z" fill="white"/>
</g>
<defs>
<clipPath id="clip0_3800_1684">
<rect width="25" height="25" fill="white" transform="translate(0 25.5) rotate(-90)"/>
</clipPath>
</defs>
</svg>
