<svg width="340" height="179" viewBox="0 0 340 179" fill="none" xmlns="http://www.w3.org/2000/svg">
<path d="M150.975 4.08398C150.975 13.4473 150.643 27.5918 149.979 46.4844C149.314 65.3769 148.982 79.5547 148.982 88.9512C148.982 97.8164 149.082 118.137 149.248 135.867C139.652 126.305 121.059 107.18 121.059 89.1172C121.059 78.5254 120.693 74.1426 119.896 52.959C119.1 31.7754 118.734 15.9707 118.734 5.47851C118.734 2.78906 119.564 1.42773 121.191 1.42773C122.652 1.42773 124.844 1.56054 127.832 1.79297C130.82 2.05859 133.045 2.1582 134.506 2.1582C136.066 2.1582 138.391 2.02539 141.479 1.79297C144.6 1.52734 146.891 1.42773 148.451 1.42773C150.078 1.42773 150.975 2.29102 150.975 4.08398Z" fill="white"/>
<path d="M340 146.924C340 147.887 339.203 149.281 337.676 151.041C321.771 169.402 302.115 178.6 278.641 178.6C254.203 178.6 234.646 169.668 220.004 151.871C206.291 135.236 199.451 114.518 199.451 89.582C199.451 64.7129 206.49 43.8945 220.369 27.0938C235.244 9.09766 254.801 0 279.172 0C303.875 0 323.033 8.30078 336.547 25.002C337.875 26.6621 338.506 28.1562 338.506 29.2852C338.506 30.6465 336.348 34.7637 331.998 41.5371C327.648 48.3437 325.025 51.7637 324.129 51.7637C323.1 51.7637 320.576 49.7383 316.658 45.7539C311.877 40.873 307.328 37.1875 303.078 34.7637C296.072 30.7461 288.336 28.7539 279.869 28.7539C263.732 28.7539 251.182 34.8965 242.217 47.1816C234.215 58.1719 230.197 72.0176 230.197 88.7519C230.197 105.42 234.148 119.398 242.084 130.654C251.016 143.305 263.533 149.58 279.604 149.58C287.605 149.58 295.309 147.555 302.746 143.604C307.627 141.014 312.607 137.295 317.654 132.514C321.871 128.529 324.195 126.537 324.627 126.537C325.125 126.537 327.781 129.758 332.662 136.199C337.543 142.707 340 146.26 340 146.924ZM148.451 164.355C149.713 166.547 150.709 168.904 152.07 171.062C153.498 173.354 151.041 175.113 148.982 175.113C147.721 175.113 145.895 174.98 143.438 174.748C140.98 174.482 139.088 174.383 137.893 174.383C136.564 174.383 134.572 174.516 131.85 174.748C129.127 175.014 127.135 175.113 125.807 175.113C124.346 175.113 122.652 173.818 120.627 171.229C103.062 147.521 76.5332 112.16 40.873 65.1113C35.3281 57.9394 32.1074 53.9219 31.2441 53.1582C30.4473 53.1582 30.0488 54.8184 30.0488 58.1719C30.0488 70.7227 30.248 89.5156 30.6465 114.65C31.0781 139.752 31.2773 158.578 31.2773 171.096C31.2773 173.818 30.4473 175.146 28.8203 175.146C27.459 175.146 25.334 175.014 22.4785 174.781C19.6562 174.516 17.5312 174.416 16.1367 174.416C14.6758 174.416 12.4844 174.549 9.5957 174.781C6.74023 175.047 4.51562 175.146 3.05469 175.146C0.996094 175.146 0 174.316 0 172.689C0 163.758 0.431641 150.277 1.26172 132.215C2.0918 114.219 2.52344 100.672 2.52344 91.6074C2.52344 81.7793 2.1582 64.0156 1.42773 38.3828C1.29492 31.709 0.863281 21.7148 0.265625 8.36719L0.132812 6.77343C0.0664062 5.51172 0.996094 4.91406 3.05469 4.81445C8.36719 4.71484 12.4844 4.54883 15.4727 4.31641C16.6348 4.25 18.7598 3.88477 21.9473 3.32031C24.6035 2.82227 26.7285 2.55664 28.2891 2.55664C29.0527 2.55664 30.3145 3.71875 32.1074 6.10937C50.834 31.8418 79.4551 70.125 118.07 120.926C119.797 123.051 121.357 124.877 122.818 126.437C136.1 146.127 139.088 147.854 148.451 164.355Z" fill="white"/>
</svg>
