<svg width="500" height="263" viewBox="0 0 500 263" fill="none" xmlns="http://www.w3.org/2000/svg">
<path d="M222.021 6.00586C222.021 19.7754 221.533 40.5762 220.557 68.3594C219.58 96.1426 219.092 116.992 219.092 130.811C219.092 143.848 219.238 173.73 219.482 199.805C205.371 185.742 178.027 157.617 178.027 131.055C178.027 115.479 177.49 109.033 176.318 77.8809C175.146 46.7285 174.609 23.4863 174.609 8.05664C174.609 4.10156 175.83 2.09961 178.223 2.09961C180.371 2.09961 183.594 2.29492 187.988 2.63671C192.383 3.02734 195.654 3.17383 197.803 3.17383C200.098 3.17383 203.516 2.97851 208.057 2.63671C212.646 2.24609 216.016 2.09961 218.311 2.09961C220.703 2.09961 222.021 3.36914 222.021 6.00586Z" fill="#E53212"/>
<path d="M500 216.064C500 217.48 498.828 219.531 496.582 222.119C473.193 249.121 444.287 262.646 409.766 262.646C373.828 262.646 345.068 249.512 323.535 223.34C303.369 198.877 293.311 168.408 293.311 131.738C293.311 95.166 303.662 64.5508 324.072 39.8438C345.947 13.3789 374.707 0 410.547 0C446.875 0 475.049 12.207 494.922 36.7676C496.875 39.209 497.803 41.4062 497.803 43.0664C497.803 45.0684 494.629 51.123 488.232 61.084C481.836 71.0938 477.979 76.123 476.66 76.123C475.146 76.123 471.436 73.1445 465.674 67.2851C458.643 60.1074 451.953 54.6875 445.703 51.123C435.4 45.2148 424.023 42.2852 411.572 42.2852C387.842 42.2852 369.385 51.3184 356.201 69.3848C344.434 85.5469 338.525 105.908 338.525 130.518C338.525 155.029 344.336 175.586 356.006 192.139C369.141 210.742 387.549 219.971 411.182 219.971C422.949 219.971 434.277 216.992 445.215 211.182C452.393 207.373 459.717 201.904 467.139 194.873C473.34 189.014 476.758 186.084 477.393 186.084C478.125 186.084 482.031 190.82 489.209 200.293C496.387 209.863 500 215.088 500 216.064ZM218.311 241.699C220.166 244.922 221.631 248.389 223.633 251.562C225.732 254.932 222.119 257.52 219.092 257.52C217.236 257.52 214.551 257.324 210.938 256.982C207.324 256.592 204.541 256.445 202.783 256.445C200.83 256.445 197.9 256.641 193.896 256.982C189.893 257.373 186.963 257.52 185.01 257.52C182.861 257.52 180.371 255.615 177.393 251.807C151.562 216.943 112.549 164.941 60.1074 95.752C51.9531 85.2051 47.2168 79.2969 45.9473 78.1738C44.7754 78.1738 44.1895 80.6152 44.1895 85.5469C44.1895 104.004 44.4824 131.641 45.0684 168.604C45.7031 205.518 45.9961 233.203 45.9961 251.611C45.9961 255.615 44.7754 257.568 42.3828 257.568C40.3809 257.568 37.2559 257.373 33.0566 257.031C28.9062 256.641 25.7812 256.494 23.7305 256.494C21.582 256.494 18.3594 256.689 14.1113 257.031C9.91211 257.422 6.64062 257.568 4.49219 257.568C1.46484 257.568 0 256.348 0 253.955C0 240.82 0.634766 220.996 1.85547 194.434C3.07617 167.969 3.71094 148.047 3.71094 134.717C3.71094 120.264 3.17383 94.1406 2.09961 56.4453C1.9043 46.6309 1.26953 31.9336 0.390625 12.3047L0.195312 9.96093C0.0976562 8.10546 1.46484 7.22656 4.49219 7.08008C12.3047 6.93359 18.3594 6.68945 22.7539 6.34766C24.4629 6.25 27.5879 5.71289 32.2754 4.88281C36.1816 4.15039 39.3066 3.75976 41.6016 3.75976C42.7246 3.75976 44.5801 5.46875 47.2168 8.98437C74.7559 46.8262 116.846 103.125 173.633 177.832C176.172 180.957 178.467 183.643 180.615 185.937C200.146 214.893 204.541 217.432 218.311 241.699Z" fill="white"/>
</svg>
