<svg width="77" height="41" viewBox="0 0 77 41" fill="none" xmlns="http://www.w3.org/2000/svg">
<path d="M33.8125 1.41522C33.8125 3.51226 33.7381 6.68014 33.5894 10.9114C33.4407 15.1427 33.3663 18.318 33.3663 20.4225C33.3663 22.408 33.3886 26.959 33.4258 30.93C31.2767 28.7883 27.1123 24.505 27.1123 20.4596C27.1123 18.0875 27.0305 17.1059 26.8521 12.3615C26.6736 7.61711 26.5918 4.07742 26.5918 1.72754C26.5918 1.1252 26.7777 0.820312 27.1421 0.820312C27.4693 0.820312 27.9601 0.850057 28.6293 0.902111C29.2986 0.961602 29.7969 0.983911 30.1241 0.983911C30.4736 0.983911 30.9941 0.954166 31.6857 0.902111C32.3847 0.842621 32.8978 0.820312 33.2473 0.820312C33.6117 0.820312 33.8125 1.01366 33.8125 1.41522Z" fill="white"/>
<path d="M76.148 33.4057C76.148 33.6214 75.9695 33.9337 75.6274 34.3278C72.0654 38.4401 67.6631 40.5 62.4056 40.5C56.9325 40.5 52.5525 38.4996 49.2731 34.5138C46.2019 30.7882 44.67 26.1479 44.67 20.5632C44.67 14.9934 46.2465 10.3308 49.3549 6.56804C52.6864 2.53755 57.0664 0.5 62.5246 0.5C68.0573 0.5 72.348 2.35908 75.3746 6.09955C75.6721 6.47137 75.8133 6.806 75.8133 7.05884C75.8133 7.36373 75.33 8.28583 74.3558 9.80284C73.3817 11.3273 72.7942 12.0932 72.5934 12.0932C72.3629 12.0932 71.7977 11.6396 70.9202 10.7473C69.8494 9.65412 68.8306 8.82869 67.8788 8.28583C66.3097 7.38604 64.5771 6.93986 62.6808 6.93986C59.0667 6.93986 56.2558 8.31558 54.248 11.067C52.4558 13.5284 51.556 16.6294 51.556 20.3773C51.556 24.1103 52.441 27.241 54.2183 29.7619C56.2186 32.5952 59.0221 34.0006 62.6213 34.0006C64.4135 34.0006 66.1387 33.547 67.8044 32.6621C68.8976 32.0821 70.013 31.2492 71.1433 30.1784C72.0877 29.286 72.6083 28.8398 72.705 28.8398C72.8165 28.8398 73.4114 29.5612 74.5046 31.0038C75.5977 32.4613 76.148 33.257 76.148 33.4057ZM33.2478 37.3098C33.5304 37.8006 33.7535 38.3286 34.0584 38.812C34.3781 39.3251 33.8278 39.7192 33.3668 39.7192C33.0842 39.7192 32.6752 39.6894 32.1249 39.6374C31.5746 39.5779 31.1508 39.5556 30.8831 39.5556C30.5856 39.5556 30.1394 39.5853 29.5297 39.6374C28.9199 39.6969 28.4737 39.7192 28.1762 39.7192C27.849 39.7192 27.4698 39.4292 27.0162 38.8491C23.0824 33.5396 17.1407 25.6199 9.15412 15.0826C7.91225 13.4764 7.19093 12.5766 6.99758 12.4056C6.81911 12.4056 6.72988 12.7774 6.72988 13.5284C6.72988 16.3394 6.77449 20.5483 6.86373 26.1776C6.9604 31.7995 7.00502 36.0159 7.00502 38.8194C7.00502 39.4292 6.81911 39.7266 6.45473 39.7266C6.14984 39.7266 5.67392 39.6969 5.03439 39.6448C4.4023 39.5853 3.92638 39.563 3.61405 39.563C3.28686 39.563 2.79606 39.5928 2.1491 39.6448C1.50957 39.7043 1.01134 39.7266 0.684142 39.7266C0.22309 39.7266 0 39.5407 0 39.1763C0 37.176 0.0966722 34.1568 0.28258 30.1115C0.468489 26.081 0.565161 23.0469 0.565161 21.0168C0.565161 18.8157 0.483361 14.8372 0.319762 9.09639C0.290017 7.60169 0.193344 5.36336 0.0594906 2.37395L0.0297453 2.01701C0.0148727 1.73443 0.22309 1.60058 0.684142 1.57827C1.87395 1.55596 2.79606 1.51878 3.46533 1.46672C3.7256 1.45185 4.20152 1.37005 4.91541 1.24363C5.51032 1.13209 5.98624 1.0726 6.33575 1.0726C6.50679 1.0726 6.78937 1.33287 7.19093 1.86828C11.385 7.63144 17.7951 16.2055 26.4436 27.5831C26.8303 28.059 27.1798 28.468 27.507 28.8175C30.4815 33.2273 31.1508 33.614 33.2478 37.3098Z" fill="white"/>
</svg>
