<svg width="67" height="46" viewBox="0 0 67 46" fill="none" xmlns="http://www.w3.org/2000/svg">
<path d="M29.4439 0.796356C29.4439 2.62243 29.3792 5.38097 29.2496 9.0655C29.1201 12.75 29.0554 15.515 29.0554 17.3476C29.0554 19.0765 29.0748 23.0395 29.1072 26.4974C27.2358 24.6325 23.6095 20.9026 23.6095 17.38C23.6095 15.3143 23.5383 14.4595 23.3829 10.3282C23.2275 6.19688 23.1562 3.11456 23.1562 1.06832C23.1562 0.543813 23.3181 0.27832 23.6354 0.27832C23.9204 0.27832 24.3477 0.304221 24.9305 0.34955C25.5133 0.401353 25.9472 0.42078 26.2321 0.42078C26.5364 0.42078 26.9897 0.394878 27.5919 0.34955C28.2006 0.297746 28.6474 0.27832 28.9518 0.27832C29.2691 0.27832 29.4439 0.446682 29.4439 0.796356Z" fill="white"/>
<path d="M66.3085 28.6538C66.3085 28.8416 66.1531 29.1136 65.8553 29.4568C62.7535 33.0377 58.9201 34.8314 54.3419 34.8314C49.576 34.8314 45.762 33.0895 42.9063 29.6187C40.2319 26.3745 38.898 22.3338 38.898 17.4707C38.898 12.6206 40.2708 8.56054 42.9775 5.28396C45.8785 1.77427 49.6926 0 54.4455 0C59.2633 0 62.9996 1.61886 65.6351 4.87601C65.8941 5.19978 66.0172 5.49118 66.0172 5.71134C66.0172 5.97683 65.5963 6.77979 64.748 8.10078C63.8997 9.42825 63.3881 10.0952 63.2133 10.0952C63.0125 10.0952 62.5204 9.70021 61.7563 8.92316C60.8238 7.97127 59.9367 7.2525 59.1079 6.77979C57.7415 5.99626 56.2328 5.60773 54.5815 5.60773C51.4345 5.60773 48.9867 6.80569 47.2384 9.20161C45.6778 11.345 44.8943 14.0452 44.8943 17.3089C44.8943 20.5595 45.6648 23.2857 47.2125 25.4809C48.9544 27.948 51.3956 29.1719 54.5297 29.1719C56.0903 29.1719 57.5926 28.7769 59.0431 28.0063C59.995 27.5012 60.9663 26.776 61.9506 25.8435C62.773 25.0664 63.2262 24.6779 63.3104 24.6779C63.4076 24.6779 63.9256 25.306 64.8775 26.5623C65.8294 27.8315 66.3085 28.5243 66.3085 28.6538ZM28.9517 32.0534C29.1978 32.4808 29.392 32.9406 29.6575 33.3615C29.936 33.8083 29.4568 34.1515 29.0553 34.1515C28.8093 34.1515 28.4531 34.1256 27.9739 34.0803C27.4947 34.0285 27.1256 34.009 26.8925 34.009C26.6335 34.009 26.245 34.0349 25.714 34.0803C25.183 34.1321 24.7945 34.1515 24.5355 34.1515C24.2505 34.1515 23.9203 33.8989 23.5253 33.3939C20.0998 28.7704 14.9259 21.874 7.97127 12.6983C6.88987 11.2996 6.26175 10.5161 6.09339 10.3672C5.93798 10.3672 5.86028 10.691 5.86028 11.345C5.86028 13.7927 5.89913 17.4578 5.97684 22.3597C6.06102 27.2551 6.09987 30.9267 6.09987 33.368C6.09987 33.8989 5.93798 34.158 5.62069 34.158C5.35519 34.158 4.94076 34.1321 4.38388 34.0867C3.83346 34.0349 3.41903 34.0155 3.14707 34.0155C2.86215 34.0155 2.43477 34.0414 1.8714 34.0867C1.31452 34.1385 0.88066 34.158 0.595741 34.158C0.194263 34.158 0 33.9961 0 33.6788C0 31.9369 0.0841808 29.3079 0.246067 25.7852C0.407953 22.2755 0.492134 19.6335 0.492134 17.8657C0.492134 15.949 0.420904 12.4847 0.278444 7.48561C0.252542 6.18405 0.168362 4.23494 0.0518036 1.63181L0.0259018 1.32099C0.0129509 1.07492 0.194263 0.958366 0.595741 0.938939C1.63181 0.919513 2.43477 0.887136 3.01756 0.841808C3.2442 0.828857 3.65863 0.757627 4.28027 0.647544C4.7983 0.550413 5.21273 0.498609 5.51708 0.498609C5.66601 0.498609 5.91208 0.725249 6.26175 1.19148C9.91391 6.20995 15.4957 13.6761 23.0267 23.5836C23.3634 23.998 23.6677 24.3541 23.9527 24.6585C26.5428 28.4984 27.1256 28.8351 28.9517 32.0534Z" fill="white"/>
<path d="M1.62429 45.8518H0V39.3934H1.50397L1.63098 40.4574C1.86493 40.0938 2.16572 39.8042 2.54673 39.5819C2.92774 39.3597 3.33548 39.252 3.78333 39.252C4.47182 39.252 5.01993 39.5011 5.42768 39.9928C5.83542 40.4911 6.04263 41.1578 6.04263 41.9929V45.8518H4.40497V42.1545C4.40497 41.7033 4.29802 41.3531 4.09081 41.0972C3.8836 40.8413 3.57612 40.7134 3.18843 40.7134C2.75394 40.7134 2.38631 40.8682 2.08551 41.1713C1.77803 41.4811 1.62429 41.8515 1.62429 42.2758V45.8518Z" fill="white"/>
<path d="M12.6869 46C11.5505 46 10.6682 45.6902 10.0332 45.0639C9.40486 44.4308 9.0907 43.6361 9.0907 42.6731C9.0907 41.7033 9.39149 40.8952 9.99977 40.2419C10.6147 39.5819 11.3968 39.252 12.3393 39.252C13.2751 39.252 14.017 39.5752 14.5652 40.2285C15.1133 40.8682 15.3873 41.6225 15.3873 42.4913C15.3873 42.7202 15.3673 42.9425 15.3272 43.158H10.8019C10.969 44.148 11.6909 44.6396 12.9676 44.6396C13.7296 44.6396 14.3312 44.5049 14.7857 44.2355V45.5353C14.1708 45.8451 13.4756 46 12.6869 46ZM10.7751 42.1209H13.7296C13.7096 41.6899 13.5692 41.3329 13.3152 41.0366C13.0612 40.7403 12.7203 40.5989 12.3059 40.5989C11.8981 40.5989 11.5572 40.7403 11.2765 41.0164C11.0024 41.2858 10.8353 41.6562 10.7751 42.1209Z" fill="white"/>
<path d="M21.5235 45.8517H19.946L17.7001 39.3933H19.4514L20.8684 43.8987L22.2655 39.3933H23.6625L25.0528 43.9122L26.4632 39.3933H28.1276L25.8683 45.8517H24.3042L22.9205 41.5753L21.5235 45.8517Z" fill="white"/>
<path d="M39.003 46C38.0338 46 37.2384 45.6767 36.6167 45.0369C35.9951 44.3904 35.6876 43.5957 35.6876 42.6664C35.6876 41.7101 36.0152 40.9087 36.6702 40.2487C37.332 39.5819 38.1541 39.252 39.1434 39.252C39.8319 39.252 40.36 39.3866 40.7209 39.6628V41.1713C40.3332 40.8682 39.8453 40.7134 39.2637 40.7134C38.6755 40.7134 38.2143 40.8952 37.8734 41.2656C37.5258 41.6292 37.352 42.0737 37.352 42.6058C37.352 43.1445 37.5258 43.6025 37.8734 43.9729C38.221 44.3433 38.6956 44.5318 39.2972 44.5318C39.8653 44.5318 40.3399 44.4039 40.7142 44.148V45.542C40.2597 45.8451 39.6915 46 39.003 46Z" fill="white"/>
<path d="M46.3023 46C45.4935 46 44.805 45.6767 44.2301 45.0369C43.662 44.4039 43.3812 43.6159 43.3812 42.6798C43.3812 41.7101 43.6887 40.9019 44.3103 40.2487C44.932 39.5819 45.6539 39.252 46.4694 39.252C46.8838 39.252 47.2782 39.3597 47.6525 39.5819C48.0202 39.8042 48.3009 40.0736 48.4881 40.3968L48.6151 39.4001H50.1123V45.8585H48.6151L48.4881 44.781C48.2875 45.1245 47.98 45.4141 47.5723 45.643C47.1646 45.872 46.7368 46 46.3023 46ZM46.7969 44.5386C47.2982 44.5386 47.7194 44.35 48.0536 43.9796C48.3945 43.6159 48.5616 43.158 48.5616 42.626C48.5616 42.0939 48.3945 41.6495 48.0536 41.2858C47.7194 40.9087 47.2982 40.7268 46.7969 40.7268C46.2622 40.7268 45.8411 40.9087 45.5269 41.2791C45.206 41.6562 45.0456 42.1074 45.0456 42.6327C45.0456 43.1715 45.206 43.6294 45.5269 43.9998C45.8411 44.35 46.2622 44.5386 46.7969 44.5386Z" fill="white"/>
<path d="M55.1725 45.8518H53.5482V39.3934H55.0522L55.1792 40.8009C55.5869 39.7705 56.222 39.252 57.0775 39.252C57.3516 39.252 57.5789 39.2991 57.746 39.3934V40.9423C57.5321 40.8615 57.2781 40.8211 56.9973 40.8211C56.4626 40.8211 56.0214 41.0097 55.6872 41.3868C55.353 41.7639 55.1792 42.2556 55.1792 42.8684V45.8518H55.1725Z" fill="white"/>
<path d="M63.6081 46C62.4718 46 61.5895 45.6902 60.9545 45.0639C60.3261 44.4308 60.012 43.6361 60.012 42.6731C60.012 41.7033 60.3128 40.8952 60.921 40.2419C61.536 39.5819 62.3181 39.252 63.2605 39.252C64.1964 39.252 64.9383 39.5752 65.4864 40.2285C66.0345 40.8682 66.3086 41.6225 66.3086 42.4913C66.3086 42.7202 66.2885 42.9425 66.2484 43.158H61.7232C61.8903 44.148 62.6122 44.6396 63.8889 44.6396C64.6509 44.6396 65.2525 44.5049 65.707 44.2355V45.5353C65.0921 45.8451 64.3902 46 63.6081 46ZM61.6964 42.1209H64.6509C64.6308 41.6899 64.4905 41.3329 64.2365 41.0366C63.9825 40.7403 63.6416 40.5989 63.2271 40.5989C62.8194 40.5989 62.4785 40.7403 62.1977 41.0164C61.9237 41.2858 61.7566 41.6562 61.6964 42.1209Z" fill="white"/>
</svg>
